<svg xmlns="http://www.w3.org/2000/svg" width="760" height="580" viewBox="0 0 760 580">
<rect width="100%" height="100%" fill="white"/>
<line x1="140" y1="460" x2="714" y2="460" stroke="black"/>
<line x1="140" y1="50" x2="140" y2="460" stroke="black"/>
<line x1="140.0" y1="460" x2="140.0" y2="465" stroke="black"/>
<text x="140.0" y="498" text-anchor="middle" font-family="sans-serif" font-size="19">10⁻⁵</text>
<line x1="262.4303361035911" y1="460" x2="262.4303361035911" y2="465" stroke="black"/>
<text x="262.4303361035911" y="498" text-anchor="middle" font-family="sans-serif" font-size="19">10⁻⁴</text>
<line x1="384.86067220718223" y1="460" x2="384.86067220718223" y2="465" stroke="black"/>
<text x="384.86067220718223" y="498" text-anchor="middle" font-family="sans-serif" font-size="19">10⁻³</text>
<line x1="507.2910083107734" y1="460" x2="507.2910083107734" y2="465" stroke="black"/>
<text x="507.2910083107734" y="498" text-anchor="middle" font-family="sans-serif" font-size="19">10⁻²</text>
<line x1="629.7213444143645" y1="460" x2="629.7213444143645" y2="465" stroke="black"/>
<text x="629.7213444143645" y="498" text-anchor="middle" font-family="sans-serif" font-size="19">10⁻¹</text>
<line x1="135" y1="405.9832826160788" x2="140" y2="405.9832826160788" stroke="black"/>
<text x="126" y="411.9832826160788" text-anchor="end" font-family="sans-serif" font-size="19">10⁻¹</text>
<line x1="135" y1="292.4996761088536" x2="140" y2="292.4996761088536" stroke="black"/>
<text x="126" y="298.4996761088536" text-anchor="end" font-family="sans-serif" font-size="19">10⁰</text>
<line x1="135" y1="179.01606960162843" x2="140" y2="179.01606960162843" stroke="black"/>
<text x="126" y="185.01606960162843" text-anchor="end" font-family="sans-serif" font-size="19">10¹</text>
<line x1="135" y1="65.53246309440323" x2="140" y2="65.53246309440323" stroke="black"/>
<text x="126" y="71.53246309440323" text-anchor="end" font-family="sans-serif" font-size="19">10²</text>
<polyline fill="none" stroke="#555555" stroke-width="2" stroke-dasharray="4 4" points="140.0,52.21 176.86,72.71 198.41,84.7 213.71,93.21 225.58,99.8 235.27,105.2 243.47,109.75 250.57,113.7 256.83,117.19 262.43,120.3 267.5,123.12 272.12,125.69 276.38,128.06 280.32,130.25 283.99,132.29 287.42,134.2 290.64,135.99 293.68,137.68 296.56,139.28 299.29,140.8 301.88,142.24 304.35,143.62 306.72,144.93 308.98,146.19 311.15,147.4 313.24,148.56 316.21,150.21 319.04,151.79 321.72,153.27 324.28,154.7 326.71,156.05 329.79,157.76 332.7,159.38 334.79,160.55 337.44,162.02 340.6,163.77 342.99,165.1 345.28,166.38 348.0,167.89 350.6,169.34 353.07,170.71 355.89,172.28 358.57,173.77 361.13,175.19 363.56,176.55 366.27,178.05 368.85,179.49 371.3,180.85 373.98,182.34 376.53,183.76 379.25,185.27 381.85,186.72 384.32,188.09 386.94,189.55 389.68,191.07 392.29,192.52 394.77,193.9 397.56,195.46 400.22,196.93 402.75,198.34 405.34,199.78 407.99,201.25 410.67,202.75 413.23,204.17 415.81,205.6 418.42,207.06 421.04,208.51 423.67,209.97 426.29,211.43 428.91,212.89 431.52,214.34 434.21,215.84 436.87,217.32 439.41,218.73 442.01,220.18 444.67,221.65 447.28,223.11 449.92,224.58 452.52,226.02 455.13,227.47 457.76,228.94 460.33,230.36 462.96,231.83 465.59,233.29 468.2,234.74 470.8,236.19 473.38,237.62 476.03,239.09 478.64,240.55 481.26,242.01 483.89,243.47 486.51,244.92 489.11,246.37 491.7,247.81 494.35,249.28 496.96,250.74 499.57,252.19 502.18,253.64 504.78,255.09 507.42,256.55 510.03,258.01 512.64,259.46 515.27,260.92 517.88,262.37 520.49,263.82 523.1,265.28 525.72,266.73 528.35,268.19 530.95,269.64 533.56,271.09 536.18,272.55 538.8,274.01 541.41,275.46 544.02,276.91 546.63,278.36 549.26,279.82 551.87,281.28 554.48,282.73 557.1,284.18 559.71,285.64 562.33,287.09 564.95,288.55 567.56,290.0 570.18,291.46 572.79,292.91 575.41,294.37 578.02,295.82 580.64,297.27 583.25,298.72 585.86,300.18 588.48,301.63 591.09,303.09 593.71,304.54 596.32,306.0 598.94,307.45 601.56,308.91 604.17,310.36 606.79,311.82 609.4,313.27 612.02,314.72 614.63,316.18 617.24,317.63 619.86,319.09 622.48,320.54 625.09,322.0 627.71,323.45 630.32,324.9 632.93,326.36 635.55,327.81 638.17,329.27 640.78,330.72 643.39,332.18 646.01,333.63 648.62,335.08 651.24,336.54 653.85,337.99 656.47,339.45 659.09,340.9 661.7,342.36 664.31,343.81 666.93,345.27 669.55,346.72 672.16,348.17 674.77,349.63 677.39,351.08 680.0,352.54 682.62,353.99 685.23,355.45 687.85,356.9 690.46,358.35 693.08,359.81 695.7,361.26 698.31,362.72 700.92,364.17 703.54,365.63 706.15,367.08 708.77,368.53 711.39,369.99 714.0,371.44"/>
<line x1="364" y1="75" x2="406" y2="75" stroke="#555555" stroke-width="2" stroke-dasharray="4 4"/>
<text x="419" y="81" font-family="sans-serif" font-size="18">nominal spectrum β=0.4</text>
<polyline fill="none" stroke="#1f77b4" stroke-width="2" points="140.0,52.21 176.86,50.0 198.41,51.11 213.71,51.78 225.58,53.26 235.27,50.3 243.47,52.89 250.57,53.2 256.83,55.86 262.43,52.18 267.5,63.24 272.12,65.7 276.38,69.94 280.32,70.12 283.99,66.68 287.42,81.26 290.64,76.41 293.68,82.8 296.56,87.65 299.29,83.69 301.88,79.09 304.35,86.1 306.72,87.79 308.98,91.89 311.15,90.36 313.24,93.82 316.21,96.97 319.04,98.06 321.72,106.73 324.28,114.56 326.71,112.4 329.79,111.14 332.7,118.05 334.79,117.32 337.44,124.0 340.6,131.2 342.99,131.82 345.28,137.39 348.0,139.37 350.6,140.3 353.07,145.41 355.89,154.85 358.57,154.38 361.13,160.44 363.56,161.01 366.27,164.15 368.85,170.7 371.3,176.6 373.98,180.28 376.53,182.63 379.25,190.63 381.85,190.86 384.32,197.61 386.94,202.39 389.68,208.72 392.29,212.48 394.77,215.4 397.56,218.85 400.22,225.08 402.75,229.64 405.34,233.39 407.99,235.8 410.67,241.58 413.23,243.55 415.81,248.85 418.42,251.53 421.04,256.55 423.67,260.57 426.29,262.7 428.91,264.96 431.52,269.37 434.21,271.6 436.87,273.28 439.41,278.09 442.01,280.1 444.67,282.83 447.28,283.73 449.92,284.14 452.52,287.36 455.13,292.04 457.76,292.74 460.33,293.34 462.96,296.57 465.59,297.1 468.2,298.18 470.8,300.02 473.38,300.82 476.03,304.52 478.64,306.45 481.26,307.79 483.89,310.14 486.51,311.55 489.11,316.49 491.7,318.96 494.35,322.63 496.96,325.33 499.57,326.38 502.18,327.42 504.78,331.31 507.42,331.5 510.03,332.71 512.64,335.68 515.27,340.57 517.88,341.25 520.49,343.64 523.1,345.76 525.72,346.74 528.35,348.83 530.95,351.94 533.56,352.66 536.18,356.27 538.8,358.67 541.41,360.46 544.02,362.29 546.63,363.64 549.26,366.72 551.87,367.91 554.48,368.92 557.1,371.73 559.71,372.71 562.33,375.97 564.95,378.57 567.56,380.77 570.18,381.93 572.79,384.87 575.41,386.01 578.02,388.76 580.64,390.02 583.25,391.45 585.86,393.37 588.48,395.65 591.09,397.18 593.71,398.82 596.32,400.97 598.94,402.41 601.56,404.01 604.17,405.61 606.79,407.28 609.4,409.18 612.02,410.9 614.63,412.85 617.24,415.18 619.86,417.26 622.48,417.73 625.09,419.19 627.71,421.9 630.32,423.33 632.93,425.01 635.55,426.06 638.17,428.1 640.78,429.63 643.39,431.33 646.01,432.49 648.62,433.98 651.24,435.46 653.85,437.39 656.47,439.07 659.09,440.31 661.7,441.77 664.31,442.77 666.93,443.86 669.55,445.43 672.16,446.97 674.77,448.53 677.39,449.17 680.0,450.39 682.62,451.14 685.23,452.32 687.85,453.33 690.46,454.51 693.08,455.05 695.7,456.24 698.31,457.11 700.92,457.5 703.54,458.19 706.15,459.06 708.77,459.48 711.39,459.69 714.0,460.0"/>
<line x1="262.44" y1="50" x2="262.44" y2="460" stroke="#d62728" stroke-width="2" stroke-dasharray="7 5"/>
<line x1="364" y1="103" x2="406" y2="103" stroke="#d62728" stroke-width="2" stroke-dasharray="7 5"/>
<text x="419" y="109" font-family="sans-serif" font-size="18">finite-sample limit n/10</text>
<line x1="470.44" y1="50" x2="470.44" y2="460" stroke="#9467bd" stroke-width="2" stroke-dasharray="7 5"/>
<line x1="364" y1="131" x2="406" y2="131" stroke="#9467bd" stroke-width="2" stroke-dasharray="7 5"/>
<text x="419" y="137" font-family="sans-serif" font-size="18">generator memory limit</text>
<text x="380.0" y="530" text-anchor="middle" font-family="sans-serif" font-size="22">frequency</text>
<text x="52" y="288.0" transform="rotate(-90 52 288.0)" text-anchor="middle" font-family="sans-serif" font-size="22">average one-hot periodogram</text>
</svg>
