<svg xmlns="http://www.w3.org/2000/svg" width="760" height="580" viewBox="0 0 760 580">
<rect width="100%" height="100%" fill="white"/>
<line x1="116" y1="480" x2="714" y2="480" stroke="black"/>
<line x1="116" y1="44" x2="116" y2="480" stroke="black"/>
<line x1="116.0" y1="480" x2="116.0" y2="485" stroke="black"/>
<text x="116.0" y="510" text-anchor="middle" font-family="sans-serif" font-size="15">10⁻⁵</text>
<line x1="243.54937454694686" y1="480" x2="243.54937454694686" y2="485" stroke="black"/>
<text x="243.54937454694686" y="510" text-anchor="middle" font-family="sans-serif" font-size="15">10⁻⁴</text>
<line x1="371.09874909389373" y1="480" x2="371.09874909389373" y2="485" stroke="black"/>
<text x="371.09874909389373" y="510" text-anchor="middle" font-family="sans-serif" font-size="15">10⁻³</text>
<line x1="498.6481236408406" y1="480" x2="498.6481236408406" y2="485" stroke="black"/>
<text x="498.6481236408406" y="510" text-anchor="middle" font-family="sans-serif" font-size="15">10⁻²</text>
<line x1="626.1974981877875" y1="480" x2="626.1974981877875" y2="485" stroke="black"/>
<text x="626.1974981877875" y="510" text-anchor="middle" font-family="sans-serif" font-size="15">10⁻¹</text>
<line x1="111" y1="461.4677398360998" x2="116" y2="461.4677398360998" stroke="black"/>
<text x="105" y="466.4677398360998" text-anchor="end" font-family="sans-serif" font-size="15">10⁻³</text>
<line x1="111" y1="306.47463141227365" x2="116" y2="306.47463141227365" stroke="black"/>
<text x="105" y="311.47463141227365" text-anchor="end" font-family="sans-serif" font-size="15">10⁻²</text>
<line x1="111" y1="151.48152298844747" x2="116" y2="151.48152298844747" stroke="black"/>
<text x="105" y="156.48152298844747" text-anchor="end" font-family="sans-serif" font-size="15">10⁻¹</text>
<polyline fill="none" stroke="#555555" stroke-width="2" stroke-dasharray="4 4" points="116.0,44.0 154.4,71.99 176.86,88.37 192.79,99.99 205.15,109.0 215.25,116.36 223.79,122.59 231.19,127.98 237.71,132.74 243.55,137.0 248.83,140.85 253.65,144.36 258.08,147.59 262.19,150.59 266.01,153.37 269.58,155.98 272.94,158.43 276.11,160.74 279.1,162.92 281.95,164.99 284.65,166.96 287.23,168.84 289.69,170.64 292.05,172.35 294.31,174.0 296.48,175.59 299.58,177.85 302.53,180.0 305.31,182.03 307.98,183.97 310.51,185.82 313.73,188.16 316.76,190.37 318.94,191.96 321.7,193.97 324.98,196.37 327.47,198.19 329.86,199.92 332.7,201.99 335.4,203.97 337.98,205.84 340.92,207.99 343.71,210.02 346.37,211.96 348.91,213.81 351.73,215.87 354.42,217.83 356.97,219.69 359.76,221.73 362.42,223.66 365.26,225.73 367.96,227.7 370.54,229.58 373.27,231.57 376.12,233.65 378.84,235.63 381.42,237.52 384.33,239.64 387.1,241.66 389.73,243.58 392.43,245.55 395.19,247.56 397.99,249.6 400.65,251.54 403.34,253.5 406.06,255.48 408.79,257.47 411.53,259.47 414.26,261.46 416.99,263.45 419.7,265.43 422.51,267.48 425.29,269.5 427.93,271.43 430.64,273.4 433.41,275.42 436.13,277.4 438.88,279.41 441.59,281.38 444.31,283.37 447.05,285.37 449.72,287.32 452.47,289.32 455.2,291.31 457.93,293.3 460.63,295.27 463.32,297.23 466.08,299.24 468.8,301.23 471.53,303.22 474.27,305.21 476.99,307.2 479.71,309.18 482.41,311.15 485.16,313.16 487.89,315.14 490.61,317.13 493.33,319.11 496.03,321.08 498.78,323.08 501.5,325.07 504.22,327.05 506.96,329.05 509.68,331.03 512.4,333.02 515.12,335.0 517.85,336.99 520.58,338.98 523.29,340.96 526.01,342.94 528.75,344.93 531.48,346.92 534.2,348.91 536.91,350.89 539.64,352.87 542.37,354.86 545.09,356.85 547.81,358.83 550.54,360.82 553.26,362.81 555.99,364.8 558.72,366.78 561.44,368.77 564.16,370.75 566.89,372.74 569.61,374.73 572.34,376.71 575.06,378.7 577.78,380.68 580.51,382.67 583.23,384.66 585.95,386.64 588.68,388.63 591.4,390.62 594.13,392.6 596.86,394.59 599.58,396.58 602.3,398.56 605.03,400.55 607.75,402.53 610.47,404.52 613.2,406.51 615.92,408.49 618.65,410.48 621.37,412.47 624.1,414.45 626.82,416.44 629.54,418.42 632.27,420.41 635.0,422.4 637.72,424.38 640.44,426.37 643.17,428.35 645.89,430.34 648.62,432.33 651.34,434.31 654.06,436.3 656.79,438.29 659.51,440.27 662.24,442.26 664.96,444.25 667.69,446.23 670.41,448.22 673.13,450.21 675.86,452.19 678.58,454.18 681.31,456.16 684.03,458.15 686.76,460.14 689.48,462.12 692.21,464.11 694.93,466.1 697.65,468.08 700.38,470.07 703.1,472.05 705.83,474.04 708.55,476.03 711.28,478.01 714.0,480.0"/>
<line x1="434" y1="64" x2="468" y2="64" stroke="#555555" stroke-width="2" stroke-dasharray="4 4"/>
<text x="478" y="69" font-family="sans-serif" font-size="14">nominal spectrum β=0.4</text>
<polyline fill="none" stroke="#1f77b4" stroke-width="2" points="116.0,44.0 154.4,91.42 176.86,108.17 192.79,115.15 205.15,102.96 215.25,113.24 223.79,111.47 231.19,120.12 237.71,114.93 243.55,121.65 248.83,108.7 253.65,117.92 258.08,109.63 262.19,114.0 266.01,117.07 269.58,113.29 272.94,112.52 276.11,116.77 279.1,108.77 281.95,124.87 284.65,112.69 287.23,120.01 289.69,117.51 292.05,107.42 294.31,120.6 296.48,118.95 299.58,113.21 302.53,113.7 305.31,106.8 307.98,111.81 310.51,114.81 313.73,109.11 316.76,117.54 318.94,110.99 321.7,114.54 324.98,120.42 327.47,120.73 329.86,113.08 332.7,116.04 335.4,121.46 337.98,117.64 340.92,119.87 343.71,118.96 346.37,115.51 348.91,113.41 351.73,120.45 354.42,117.34 356.97,118.74 359.76,114.73 362.42,117.36 365.26,118.38 367.96,116.22 370.54,119.24 373.27,119.32 376.12,115.48 378.84,118.0 381.42,119.5 384.33,120.28 387.1,117.51 389.73,116.81 392.43,114.43 395.19,118.35 397.99,114.51 400.65,116.8 403.34,118.53 406.06,118.57 408.79,117.98 411.53,118.95 414.26,118.49 416.99,118.44 419.7,118.36 422.51,121.52 425.29,119.93 427.93,121.53 430.64,118.29 433.41,120.63 436.13,120.24 438.88,120.1 441.59,118.02 444.31,119.9 447.05,117.24 449.72,119.3 452.47,117.94 455.2,121.1 457.93,116.07 460.63,118.67 463.32,120.61 466.08,118.67 468.8,120.55 471.53,118.44 474.27,118.66 476.99,118.16 479.71,120.19 482.41,120.04 485.16,119.36 487.89,120.48 490.61,120.34 493.33,119.34 496.03,118.5 498.78,119.4 501.5,119.97 504.22,119.57 506.96,118.26 509.68,121.08 512.4,118.7 515.12,119.06 517.85,119.61 520.58,119.26 523.29,117.82 526.01,120.43 528.75,120.07 531.48,119.9 534.2,119.41 536.91,120.23 539.64,120.08 542.37,119.6 545.09,120.24 547.81,119.8 550.54,118.76 553.26,120.64 555.99,120.5 558.72,119.89 561.44,119.75 564.16,119.46 566.89,119.52 569.61,119.71 572.34,119.94 575.06,119.09 577.78,120.24 580.51,119.76 583.23,120.27 585.95,119.18 588.68,119.85 591.4,120.04 594.13,119.99 596.86,119.52 599.58,120.33 602.3,120.18 605.03,119.83 607.75,119.85 610.47,119.6 613.2,119.63 615.92,120.01 618.65,119.93 621.37,119.95 624.1,119.71 626.82,120.09 629.54,120.48 632.27,119.8 635.0,120.29 637.72,120.17 640.44,120.1 643.17,120.2 645.89,119.91 648.62,119.83 651.34,119.58 654.06,119.63 656.79,119.81 659.51,120.02 662.24,120.0 664.96,119.88 667.69,119.76 670.41,119.61 673.13,119.97 675.86,120.07 678.58,119.69 681.31,119.88 684.03,119.79 686.76,119.93 689.48,119.72 692.21,119.97 694.93,119.9 697.65,119.47 700.38,119.96 703.1,119.97 705.83,119.86 708.55,119.83 711.28,119.98 714.0,119.93"/>
<line x1="243.55" y1="44" x2="243.55" y2="480" stroke="#d62728" stroke-width="2" stroke-dasharray="7 5"/>
<line x1="434" y1="86" x2="468" y2="86" stroke="#d62728" stroke-width="2" stroke-dasharray="7 5"/>
<text x="478" y="91" font-family="sans-serif" font-size="14">finite-sample limit n/10</text>
<line x1="626.2" y1="44" x2="626.2" y2="480" stroke="#2ca02c" stroke-width="2" stroke-dasharray="7 5"/>
<line x1="434" y1="108" x2="468" y2="108" stroke="#2ca02c" stroke-width="2" stroke-dasharray="7 5"/>
<text x="478" y="113" font-family="sans-serif" font-size="14">approx. power-law onset</text>
<line x1="205.15" y1="44" x2="205.15" y2="480" stroke="#9467bd" stroke-width="2" stroke-dasharray="7 5"/>
<line x1="434" y1="130" x2="468" y2="130" stroke="#9467bd" stroke-width="2" stroke-dasharray="7 5"/>
<text x="478" y="135" font-family="sans-serif" font-size="14">generator memory limit</text>
<text x="380.0" y="536" text-anchor="middle" font-family="sans-serif" font-size="18">frequency</text>
<text x="46" y="288.0" transform="rotate(-90 46 288.0)" text-anchor="middle" font-family="sans-serif" font-size="18">average one-hot periodogram</text>
</svg>
