<svg xmlns="http://www.w3.org/2000/svg" width="760" height="580" viewBox="0 0 760 580">
<rect width="100%" height="100%" fill="white"/>
<line x1="140" y1="460" x2="714" y2="460" stroke="black"/>
<line x1="140" y1="50" x2="140" y2="460" stroke="black"/>
<line x1="140.0" y1="460" x2="140.0" y2="465" stroke="black"/>
<text x="140.0" y="498" text-anchor="middle" font-family="sans-serif" font-size="19">10⁻⁵</text>
<line x1="262.4303361035911" y1="460" x2="262.4303361035911" y2="465" stroke="black"/>
<text x="262.4303361035911" y="498" text-anchor="middle" font-family="sans-serif" font-size="19">10⁻⁴</text>
<line x1="384.86067220718223" y1="460" x2="384.86067220718223" y2="465" stroke="black"/>
<text x="384.86067220718223" y="498" text-anchor="middle" font-family="sans-serif" font-size="19">10⁻³</text>
<line x1="507.2910083107734" y1="460" x2="507.2910083107734" y2="465" stroke="black"/>
<text x="507.2910083107734" y="498" text-anchor="middle" font-family="sans-serif" font-size="19">10⁻²</text>
<line x1="629.7213444143645" y1="460" x2="629.7213444143645" y2="465" stroke="black"/>
<text x="629.7213444143645" y="498" text-anchor="middle" font-family="sans-serif" font-size="19">10⁻¹</text>
<line x1="135" y1="358.6415736589085" x2="140" y2="358.6415736589085" stroke="black"/>
<text x="126" y="364.6415736589085" text-anchor="end" font-family="sans-serif" font-size="19">10⁻¹</text>
<line x1="135" y1="212.89117353558578" x2="140" y2="212.89117353558578" stroke="black"/>
<text x="126" y="218.89117353558578" text-anchor="end" font-family="sans-serif" font-size="19">10⁰</text>
<line x1="135" y1="67.140773412263" x2="140" y2="67.140773412263" stroke="black"/>
<text x="126" y="73.140773412263" text-anchor="end" font-family="sans-serif" font-size="19">10¹</text>
<polyline fill="none" stroke="#555555" stroke-width="2" stroke-dasharray="4 4" points="140.0,50.0 176.86,76.33 198.41,91.72 213.71,102.65 225.58,111.13 235.27,118.05 243.47,123.9 250.57,128.98 256.83,133.45 262.43,137.45 267.5,141.07 272.12,144.37 276.38,147.41 280.32,150.23 283.99,152.85 287.42,155.3 290.64,157.6 293.68,159.77 296.56,161.83 299.29,163.78 301.88,165.63 304.35,167.4 306.72,169.08 308.98,170.7 311.15,172.25 313.24,173.74 316.21,175.86 319.04,177.89 321.72,179.8 324.28,181.63 326.71,183.36 329.79,185.56 332.7,187.65 334.79,189.14 337.44,191.03 340.6,193.28 342.99,194.99 345.28,196.63 348.0,198.57 350.6,200.43 353.07,202.19 355.89,204.21 358.57,206.12 361.13,207.95 363.56,209.69 366.27,211.62 368.85,213.46 371.3,215.22 373.98,217.13 376.53,218.95 379.25,220.89 381.85,222.75 384.32,224.51 386.94,226.39 389.68,228.34 392.29,230.21 394.77,231.98 397.56,233.97 400.22,235.87 402.75,237.68 405.34,239.53 407.99,241.42 410.67,243.34 413.23,245.16 415.81,247.01 418.42,248.87 421.04,250.74 423.67,252.62 426.29,254.49 428.91,256.36 431.52,258.23 434.21,260.15 436.87,262.05 439.41,263.87 442.01,265.72 444.67,267.62 447.28,269.49 449.92,271.37 452.52,273.23 455.13,275.1 457.76,276.97 460.33,278.81 462.96,280.69 465.59,282.57 468.2,284.43 470.8,286.29 473.38,288.13 476.03,290.02 478.64,291.89 481.26,293.76 483.89,295.63 486.51,297.5 489.11,299.37 491.7,301.22 494.35,303.1 496.96,304.97 499.57,306.84 502.18,308.7 504.78,310.56 507.42,312.44 510.03,314.31 512.64,316.17 515.27,318.05 517.88,319.91 520.49,321.78 523.1,323.65 525.72,325.52 528.35,327.39 530.95,329.25 533.56,331.11 536.18,332.99 538.8,334.86 541.41,336.72 544.02,338.59 546.63,340.45 549.26,342.33 551.87,344.19 554.48,346.06 557.1,347.93 559.71,349.79 562.33,351.67 564.95,353.54 567.56,355.4 570.18,357.27 572.79,359.14 575.41,361.01 578.02,362.87 580.64,364.74 583.25,366.61 585.86,368.47 588.48,370.34 591.09,372.21 593.71,374.08 596.32,375.95 598.94,377.81 601.56,379.68 604.17,381.55 606.79,383.42 609.4,385.29 612.02,387.15 614.63,389.02 617.24,390.89 619.86,392.76 622.48,394.63 625.09,396.49 627.71,398.36 630.32,400.23 632.93,402.1 635.55,403.97 638.17,405.83 640.78,407.7 643.39,409.57 646.01,411.43 648.62,413.3 651.24,415.17 653.85,417.04 656.47,418.91 659.09,420.78 661.7,422.64 664.31,424.51 666.93,426.38 669.55,428.25 672.16,430.11 674.77,431.98 677.39,433.85 680.0,435.72 682.62,437.59 685.23,439.45 687.85,441.32 690.46,443.19 693.08,445.06 695.7,446.93 698.31,448.79 700.92,450.66 703.54,452.53 706.15,454.4 708.77,456.26 711.39,458.13 714.0,460.0"/>
<line x1="364" y1="75" x2="406" y2="75" stroke="#555555" stroke-width="2" stroke-dasharray="4 4"/>
<text x="419" y="81" font-family="sans-serif" font-size="18">nominal spectrum β=0.4</text>
<polyline fill="none" stroke="#1f77b4" stroke-width="2" points="140.0,50.0 176.86,98.08 198.41,113.3 213.71,117.09 225.58,140.81 235.27,136.28 243.47,127.3 250.57,136.15 256.83,158.73 262.43,141.54 267.5,179.86 272.12,155.44 276.38,161.49 280.32,177.01 283.99,173.36 287.42,171.42 290.64,180.91 293.68,192.7 296.56,183.32 299.29,205.56 301.88,190.31 304.35,192.42 306.72,185.55 308.98,200.61 311.15,181.16 313.24,203.21 316.21,180.88 319.04,194.39 321.72,183.54 324.28,188.62 326.71,189.71 329.79,201.64 332.7,209.69 334.79,203.42 337.44,195.89 340.6,204.87 342.99,205.7 345.28,207.02 348.0,206.39 350.6,198.56 353.07,214.6 355.89,202.67 358.57,213.66 361.13,209.46 363.56,215.67 366.27,218.41 368.85,222.19 371.3,223.84 373.98,227.16 376.53,217.61 379.25,221.38 381.85,226.35 384.32,223.78 386.94,225.14 389.68,232.41 392.29,231.88 394.77,236.39 397.56,233.48 400.22,238.96 402.75,243.31 405.34,238.06 407.99,240.41 410.67,241.22 413.23,245.67 415.81,247.04 418.42,248.67 421.04,247.18 423.67,254.44 426.29,249.76 428.91,249.61 431.52,254.0 434.21,253.1 436.87,257.34 439.41,259.95 442.01,258.46 444.67,259.25 447.28,265.67 449.92,262.68 452.52,263.48 455.13,265.18 457.76,264.56 460.33,267.31 462.96,267.94 465.59,269.42 468.2,270.93 470.8,271.8 473.38,277.24 476.03,273.55 478.64,278.71 481.26,274.24 483.89,274.76 486.51,281.48 489.11,280.35 491.7,280.72 494.35,281.01 496.96,284.01 499.57,286.8 502.18,286.74 504.78,285.02 507.42,288.54 510.03,289.96 512.64,289.67 515.27,289.41 517.88,292.46 520.49,293.13 523.1,293.85 525.72,294.73 528.35,296.68 530.95,297.17 533.56,298.08 536.18,300.24 538.8,299.89 541.41,301.04 544.02,301.5 546.63,302.82 549.26,303.85 551.87,304.23 554.48,304.9 557.1,306.25 559.71,306.94 562.33,307.41 564.95,307.8 567.56,309.3 570.18,310.81 572.79,310.87 575.41,312.09 578.02,312.55 580.64,313.33 583.25,314.32 585.86,314.71 588.48,315.46 591.09,316.12 593.71,317.34 596.32,317.72 598.94,319.06 601.56,319.28 604.17,319.74 606.79,319.96 609.4,321.37 612.02,322.01 614.63,322.22 617.24,323.25 619.86,323.85 622.48,324.88 625.09,325.34 627.71,325.81 630.32,326.09 632.93,326.9 635.55,327.3 638.17,327.62 640.78,328.33 643.39,329.39 646.01,329.89 648.62,330.05 651.24,330.53 653.85,331.73 656.47,331.88 659.09,332.53 661.7,333.17 664.31,333.39 666.93,333.95 669.55,334.67 672.16,334.93 674.77,335.41 677.39,335.87 680.0,336.57 682.62,336.59 685.23,337.16 687.85,337.32 690.46,338.33 693.08,338.61 695.7,339.23 698.31,339.68 700.92,339.86 703.54,339.81 706.15,340.52 708.77,340.96 711.39,341.37 714.0,341.44"/>
<line x1="262.44" y1="50" x2="262.44" y2="460" stroke="#d62728" stroke-width="2" stroke-dasharray="7 5"/>
<line x1="364" y1="103" x2="406" y2="103" stroke="#d62728" stroke-width="2" stroke-dasharray="7 5"/>
<text x="419" y="109" font-family="sans-serif" font-size="18">finite-sample limit n/10</text>
<text x="380.0" y="530" text-anchor="middle" font-family="sans-serif" font-size="22">frequency</text>
<text x="52" y="288.0" transform="rotate(-90 52 288.0)" text-anchor="middle" font-family="sans-serif" font-size="22">average one-hot periodogram</text>
</svg>
