<svg xmlns="http://www.w3.org/2000/svg" width="760" height="580" viewBox="0 0 760 580">
<rect width="100%" height="100%" fill="white"/>
<line x1="116" y1="480" x2="714" y2="480" stroke="black"/>
<line x1="116" y1="44" x2="116" y2="480" stroke="black"/>
<line x1="116.0" y1="480" x2="116.0" y2="485" stroke="black"/>
<text x="116.0" y="510" text-anchor="middle" font-family="sans-serif" font-size="15">10⁻⁵</text>
<line x1="243.54937454694686" y1="480" x2="243.54937454694686" y2="485" stroke="black"/>
<text x="243.54937454694686" y="510" text-anchor="middle" font-family="sans-serif" font-size="15">10⁻⁴</text>
<line x1="371.09874909389373" y1="480" x2="371.09874909389373" y2="485" stroke="black"/>
<text x="371.09874909389373" y="510" text-anchor="middle" font-family="sans-serif" font-size="15">10⁻³</text>
<line x1="498.6481236408406" y1="480" x2="498.6481236408406" y2="485" stroke="black"/>
<text x="498.6481236408406" y="510" text-anchor="middle" font-family="sans-serif" font-size="15">10⁻²</text>
<line x1="626.1974981877875" y1="480" x2="626.1974981877875" y2="485" stroke="black"/>
<text x="626.1974981877875" y="510" text-anchor="middle" font-family="sans-serif" font-size="15">10⁻¹</text>
<line x1="111" y1="366.2947852499031" x2="116" y2="366.2947852499031" stroke="black"/>
<text x="105" y="371.2947852499031" text-anchor="end" font-family="sans-serif" font-size="15">10⁻¹</text>
<line x1="111" y1="226.80787929274015" x2="116" y2="226.80787929274015" stroke="black"/>
<text x="105" y="231.80787929274015" text-anchor="end" font-family="sans-serif" font-size="15">10⁰</text>
<line x1="111" y1="87.32097333557721" x2="116" y2="87.32097333557721" stroke="black"/>
<text x="105" y="92.32097333557721" text-anchor="end" font-family="sans-serif" font-size="15">10¹</text>
<polyline fill="none" stroke="#555555" stroke-width="2" stroke-dasharray="4 4" points="116.0,44.0 154.4,69.19 176.86,83.93 192.79,94.39 205.15,102.5 215.25,109.13 223.79,114.73 231.19,119.58 237.71,123.86 243.55,127.69 248.83,131.16 253.65,134.32 258.08,137.23 262.19,139.92 266.01,142.43 269.58,144.78 272.94,146.98 276.11,149.06 279.1,151.02 281.95,152.89 284.65,154.66 287.23,156.35 289.69,157.97 292.05,159.51 294.31,161.0 296.48,162.42 299.58,164.45 302.53,166.39 305.31,168.22 307.98,169.97 310.51,171.63 313.73,173.74 316.76,175.73 318.94,177.16 321.7,178.97 324.98,181.13 327.47,182.76 329.86,184.32 332.7,186.19 335.4,187.96 337.98,189.65 340.92,191.58 343.71,193.41 346.37,195.16 348.91,196.83 351.73,198.67 354.42,200.44 356.97,202.12 359.76,203.95 362.42,205.69 365.26,207.55 367.96,209.33 370.54,211.02 373.27,212.81 376.12,214.68 378.84,216.46 381.42,218.16 384.33,220.07 387.1,221.88 389.73,223.61 392.43,225.38 395.19,227.19 397.99,229.03 400.65,230.77 403.34,232.54 406.06,234.33 408.79,236.12 411.53,237.91 414.26,239.71 416.99,241.5 419.7,243.28 422.51,245.12 425.29,246.94 427.93,248.67 430.64,250.45 433.41,252.27 436.13,254.05 438.88,255.86 441.59,257.63 444.31,259.42 447.05,261.22 449.72,262.97 452.47,264.78 455.2,266.57 457.93,268.36 460.63,270.13 463.32,271.89 466.08,273.7 468.8,275.49 471.53,277.28 474.27,279.08 476.99,280.87 479.71,282.65 482.41,284.42 485.16,286.23 487.89,288.01 490.61,289.8 493.33,291.59 496.03,293.36 498.78,295.16 501.5,296.95 504.22,298.73 506.96,300.53 509.68,302.32 512.4,304.1 515.12,305.89 517.85,307.68 520.58,309.47 523.29,311.25 526.01,313.03 528.75,314.83 531.48,316.62 534.2,318.4 536.91,320.18 539.64,321.97 542.37,323.76 545.09,325.55 547.81,327.34 550.54,329.13 553.26,330.91 555.99,332.7 558.72,334.49 561.44,336.28 564.16,338.06 566.89,339.85 569.61,341.64 572.34,343.43 575.06,345.21 577.78,347.0 580.51,348.79 583.23,350.58 585.95,352.36 588.68,354.15 591.4,355.94 594.13,357.73 596.86,359.52 599.58,361.3 602.3,363.09 605.03,364.88 607.75,366.67 610.47,368.45 613.2,370.24 615.92,372.03 618.65,373.82 621.37,375.6 624.1,377.39 626.82,379.18 629.54,380.97 632.27,382.75 635.0,384.54 637.72,386.33 640.44,388.11 643.17,389.9 645.89,391.69 648.62,393.48 651.34,395.27 654.06,397.05 656.79,398.84 659.51,400.63 662.24,402.42 664.96,404.2 667.69,405.99 670.41,407.78 673.13,409.57 675.86,411.35 678.58,413.14 681.31,414.93 684.03,416.72 686.76,418.5 689.48,420.29 692.21,422.08 694.93,423.87 697.65,425.66 700.38,427.44 703.1,429.23 705.83,431.02 708.55,432.81 711.28,434.59 714.0,436.38"/>
<line x1="434" y1="64" x2="468" y2="64" stroke="#555555" stroke-width="2" stroke-dasharray="4 4"/>
<text x="478" y="69" font-family="sans-serif" font-size="14">nominal spectrum β=0.4</text>
<polyline fill="none" stroke="#1f77b4" stroke-width="2" points="116.0,88.09 154.4,104.44 176.86,102.29 192.79,72.78 205.15,88.31 215.25,116.08 223.79,135.73 231.19,118.74 237.71,129.78 243.55,111.94 248.83,121.47 253.65,144.31 258.08,147.32 262.19,127.14 266.01,146.56 269.58,149.02 272.94,147.16 276.11,145.05 279.1,164.23 281.95,158.89 284.65,142.22 287.23,154.9 289.69,156.62 292.05,165.26 294.31,144.37 296.48,147.4 299.58,162.13 302.53,141.91 305.31,166.67 307.98,145.9 310.51,162.61 313.73,161.4 316.76,157.97 318.94,165.66 321.7,169.86 324.98,161.88 327.47,167.51 329.86,183.6 332.7,168.93 335.4,181.24 337.98,184.4 340.92,173.55 343.71,175.8 346.37,171.61 348.91,173.63 351.73,172.18 354.42,179.14 356.97,187.6 359.76,174.97 362.42,180.72 365.26,180.97 367.96,189.34 370.54,185.76 373.27,180.49 376.12,182.35 378.84,182.49 381.42,186.62 384.33,193.88 387.1,195.43 389.73,193.06 392.43,189.82 395.19,191.41 397.99,202.11 400.65,194.62 403.34,203.65 406.06,196.46 408.79,204.02 411.53,208.77 414.26,204.16 416.99,205.05 419.7,211.27 422.51,209.06 425.29,208.74 427.93,208.91 430.64,216.44 433.41,215.58 436.13,216.71 438.88,218.86 441.59,222.07 444.31,224.77 447.05,218.9 449.72,224.13 452.47,231.63 455.2,236.04 457.93,230.78 460.63,230.01 463.32,234.32 466.08,233.58 468.8,239.57 471.53,235.0 474.27,240.19 476.99,243.44 479.71,244.5 482.41,246.8 485.16,246.88 487.89,247.07 490.61,247.46 493.33,251.18 496.03,252.37 498.78,254.04 501.5,253.79 504.22,259.79 506.96,262.01 509.68,262.66 512.4,262.66 515.12,264.5 517.85,266.58 520.58,269.16 523.29,269.95 526.01,272.39 528.75,274.74 531.48,276.44 534.2,279.48 536.91,279.94 539.64,281.73 542.37,285.14 545.09,287.04 547.81,289.07 550.54,291.4 553.26,295.07 555.99,298.49 558.72,297.22 561.44,300.02 564.16,303.41 566.89,305.38 569.61,307.14 572.34,310.08 575.06,312.99 577.78,315.15 580.51,317.58 583.23,319.36 585.95,323.23 588.68,325.78 591.4,327.76 594.13,332.05 596.86,334.3 599.58,337.29 602.3,340.84 605.03,343.33 607.75,347.07 610.47,350.93 613.2,352.02 615.92,356.33 618.65,359.83 621.37,363.11 624.1,367.29 626.82,370.4 629.54,373.59 632.27,376.78 635.0,380.93 637.72,385.67 640.44,388.63 643.17,392.97 645.89,397.37 648.62,401.13 651.34,405.12 654.06,408.0 656.79,413.99 659.51,416.65 662.24,420.76 664.96,425.36 667.69,429.43 670.41,432.8 673.13,438.37 675.86,441.56 678.58,446.15 681.31,450.01 684.03,453.12 686.76,457.01 689.48,460.55 692.21,463.12 694.93,466.99 697.65,469.59 700.38,472.26 703.1,474.7 705.83,476.39 708.55,478.21 711.28,479.22 714.0,480.0"/>
<line x1="243.55" y1="44" x2="243.55" y2="480" stroke="#d62728" stroke-width="2" stroke-dasharray="7 5"/>
<line x1="434" y1="86" x2="468" y2="86" stroke="#d62728" stroke-width="2" stroke-dasharray="7 5"/>
<text x="478" y="91" font-family="sans-serif" font-size="14">finite-sample limit n/10</text>
<text x="380.0" y="536" text-anchor="middle" font-family="sans-serif" font-size="18">frequency</text>
<text x="46" y="288.0" transform="rotate(-90 46 288.0)" text-anchor="middle" font-family="sans-serif" font-size="18">latent periodogram</text>
</svg>
