<svg xmlns="http://www.w3.org/2000/svg" width="560" height="390" viewBox="0 0 560 390">
<rect width="100%" height="100%" fill="white"/>
<line x1="82" y1="320" x2="526" y2="320" stroke="black"/>
<line x1="82" y1="26" x2="82" y2="320" stroke="black"/>
<line x1="82" y1="87.62" x2="526" y2="87.62" stroke="#d62728" stroke-width="2" stroke-dasharray="6 4"/>
<text x="522" y="80.62" text-anchor="end" font-family="sans-serif" font-size="14" fill="#d62728">target</text>
<rect x="90.0" y="86.94" width="46.5" height="233.06" fill="#1f77b4"/>
<line x1="113.25" y1="78.97" x2="113.25" y2="94.91" stroke="#333333" stroke-width="1.4"/>
<text x="113.25" y="344" text-anchor="middle" font-family="sans-serif" font-size="14">1</text>
<rect x="144.5" y="87.52" width="46.5" height="232.48" fill="#1f77b4"/>
<line x1="167.75" y1="78.9" x2="167.75" y2="96.15" stroke="#333333" stroke-width="1.4"/>
<text x="167.75" y="344" text-anchor="middle" font-family="sans-serif" font-size="14">2</text>
<rect x="199.0" y="85.17" width="46.5" height="234.83" fill="#1f77b4"/>
<line x1="222.25" y1="73.19" x2="222.25" y2="97.14" stroke="#333333" stroke-width="1.4"/>
<text x="222.25" y="344" text-anchor="middle" font-family="sans-serif" font-size="14">3</text>
<rect x="253.5" y="90.95" width="46.5" height="229.05" fill="#1f77b4"/>
<line x1="276.75" y1="70.85" x2="276.75" y2="111.06" stroke="#333333" stroke-width="1.4"/>
<text x="276.75" y="344" text-anchor="middle" font-family="sans-serif" font-size="14">4</text>
<rect x="308.0" y="86.51" width="46.5" height="233.49" fill="#1f77b4"/>
<line x1="331.25" y1="75.54" x2="331.25" y2="97.48" stroke="#333333" stroke-width="1.4"/>
<text x="331.25" y="344" text-anchor="middle" font-family="sans-serif" font-size="14">5</text>
<rect x="362.5" y="86.59" width="46.5" height="233.41" fill="#1f77b4"/>
<line x1="385.75" y1="76.34" x2="385.75" y2="96.83" stroke="#333333" stroke-width="1.4"/>
<text x="385.75" y="344" text-anchor="middle" font-family="sans-serif" font-size="14">6</text>
<rect x="417.0" y="88.41" width="46.5" height="231.59" fill="#1f77b4"/>
<line x1="440.25" y1="79.42" x2="440.25" y2="97.41" stroke="#333333" stroke-width="1.4"/>
<text x="440.25" y="344" text-anchor="middle" font-family="sans-serif" font-size="14">7</text>
<rect x="471.5" y="88.84" width="46.5" height="231.16" fill="#1f77b4"/>
<line x1="494.75" y1="77.03" x2="494.75" y2="100.64" stroke="#333333" stroke-width="1.4"/>
<text x="494.75" y="344" text-anchor="middle" font-family="sans-serif" font-size="14">8</text>
<text x="72" y="92.61643587735674" text-anchor="end" font-family="sans-serif" font-size="14">0.125</text>
<text x="280.0" y="366" text-anchor="middle" font-family="sans-serif" font-size="18">symbol index</text>
<text x="28" y="195.0" transform="rotate(-90 28 195.0)" text-anchor="middle" font-family="sans-serif" font-size="18">frequency</text>
</svg>
