<svg xmlns="http://www.w3.org/2000/svg" width="1200" height="760" viewBox="0 0 1200 760">
<rect width="100%" height="100%" fill="white"/>
<text x="600.0" y="30" text-anchor="middle" font-family="sans-serif" font-size="22">Generation-time scaling, k=2</text>
<text x="600.0" y="52" text-anchor="middle" font-family="sans-serif" font-size="13">Log-log plot of BenchmarkTools minimum time against sequence length</text>
<line x1="90" y1="675" x2="940" y2="675" stroke="black"/>
<line x1="90" y1="70" x2="90" y2="675" stroke="black"/>
<line x1="90.0" y1="675" x2="90.0" y2="680" stroke="black"/>
<text x="90.0" y="699" text-anchor="middle" font-family="sans-serif" font-size="11">100</text>
<line x1="302.5" y1="675" x2="302.5" y2="680" stroke="black"/>
<text x="302.5" y="699" text-anchor="middle" font-family="sans-serif" font-size="11">1000</text>
<line x1="515.0" y1="675" x2="515.0" y2="680" stroke="black"/>
<text x="515.0" y="699" text-anchor="middle" font-family="sans-serif" font-size="11">10000</text>
<line x1="727.5" y1="675" x2="727.5" y2="680" stroke="black"/>
<text x="727.5" y="699" text-anchor="middle" font-family="sans-serif" font-size="11">100000</text>
<line x1="940.0" y1="675" x2="940.0" y2="680" stroke="black"/>
<text x="940.0" y="699" text-anchor="middle" font-family="sans-serif" font-size="11">1000000</text>
<line x1="85" y1="577.9649738901398" x2="90" y2="577.9649738901398" stroke="black"/>
<text x="80" y="581.9649738901398" text-anchor="end" font-family="sans-serif" font-size="11">10^-2</text>
<line x1="85" y1="477.6538832528411" x2="90" y2="477.6538832528411" stroke="black"/>
<text x="80" y="481.6538832528411" text-anchor="end" font-family="sans-serif" font-size="11">10^-1</text>
<line x1="85" y1="377.34279261554246" x2="90" y2="377.34279261554246" stroke="black"/>
<text x="80" y="381.34279261554246" text-anchor="end" font-family="sans-serif" font-size="11">10^0</text>
<line x1="85" y1="277.0317019782437" x2="90" y2="277.0317019782437" stroke="black"/>
<text x="80" y="281.0317019782437" text-anchor="end" font-family="sans-serif" font-size="11">10^1</text>
<line x1="85" y1="176.72061134094508" x2="90" y2="176.72061134094508" stroke="black"/>
<text x="80" y="180.72061134094508" text-anchor="end" font-family="sans-serif" font-size="11">10^2</text>
<line x1="85" y1="76.40952070364642" x2="90" y2="76.40952070364642" stroke="black"/>
<text x="80" y="80.40952070364642" text-anchor="end" font-family="sans-serif" font-size="11">10^3</text>
<polyline fill="none" stroke="#1f77b4" stroke-width="2" points="90.0,579.29 302.5,452.68 515.0,350.74 727.5,250.49 940.0,149.57"/>
<circle cx="90.0" cy="579.29" r="3" fill="#1f77b4"/>
<circle cx="302.5" cy="452.68" r="3" fill="#1f77b4"/>
<circle cx="515.0" cy="350.74" r="3" fill="#1f77b4"/>
<circle cx="727.5" cy="250.49" r="3" fill="#1f77b4"/>
<circle cx="940.0" cy="149.57" r="3" fill="#1f77b4"/>
<line x1="968" y1="90" x2="998" y2="90" stroke="#1f77b4" stroke-width="2"/>
<text x="1006" y="94" font-family="sans-serif" font-size="12">MB1a</text>
<polyline fill="none" stroke="#ff7f0e" stroke-width="2" points="90.0,584.86 302.5,462.6 515.0,344.41 727.5,228.32 940.0,116.43"/>
<circle cx="90.0" cy="584.86" r="3" fill="#ff7f0e"/>
<circle cx="302.5" cy="462.6" r="3" fill="#ff7f0e"/>
<circle cx="515.0" cy="344.41" r="3" fill="#ff7f0e"/>
<circle cx="727.5" cy="228.32" r="3" fill="#ff7f0e"/>
<circle cx="940.0" cy="116.43" r="3" fill="#ff7f0e"/>
<line x1="968" y1="112" x2="998" y2="112" stroke="#ff7f0e" stroke-width="2"/>
<text x="1006" y="116" font-family="sans-serif" font-size="12">MB1b</text>
<polyline fill="none" stroke="#2ca02c" stroke-width="2" points="90.0,567.63 302.5,445.81 515.0,343.5 727.5,243.5 940.0,143.24"/>
<circle cx="90.0" cy="567.63" r="3" fill="#2ca02c"/>
<circle cx="302.5" cy="445.81" r="3" fill="#2ca02c"/>
<circle cx="515.0" cy="343.5" r="3" fill="#2ca02c"/>
<circle cx="727.5" cy="243.5" r="3" fill="#2ca02c"/>
<circle cx="940.0" cy="143.24" r="3" fill="#2ca02c"/>
<line x1="968" y1="134" x2="998" y2="134" stroke="#2ca02c" stroke-width="2"/>
<text x="1006" y="138" font-family="sans-serif" font-size="12">MB1c</text>
<polyline fill="none" stroke="#d62728" stroke-width="2" points="90.0,675.0 302.5,582.79 515.0,490.65 727.5,391.19 940.0,285.87"/>
<circle cx="90.0" cy="675.0" r="3" fill="#d62728"/>
<circle cx="302.5" cy="582.79" r="3" fill="#d62728"/>
<circle cx="515.0" cy="490.65" r="3" fill="#d62728"/>
<circle cx="727.5" cy="391.19" r="3" fill="#d62728"/>
<circle cx="940.0" cy="285.87" r="3" fill="#d62728"/>
<line x1="968" y1="156" x2="998" y2="156" stroke="#d62728" stroke-width="2"/>
<text x="1006" y="160" font-family="sans-serif" font-size="12">MB2</text>
<polyline fill="none" stroke="#9467bd" stroke-width="2" points="90.0,661.67 302.5,554.2 515.0,451.61 727.5,351.53 940.0,249.24"/>
<circle cx="90.0" cy="661.67" r="3" fill="#9467bd"/>
<circle cx="302.5" cy="554.2" r="3" fill="#9467bd"/>
<circle cx="515.0" cy="451.61" r="3" fill="#9467bd"/>
<circle cx="727.5" cy="351.53" r="3" fill="#9467bd"/>
<circle cx="940.0" cy="249.24" r="3" fill="#9467bd"/>
<line x1="968" y1="178" x2="998" y2="178" stroke="#9467bd" stroke-width="2"/>
<text x="1006" y="182" font-family="sans-serif" font-size="12">MB3</text>
<polyline fill="none" stroke="#8c564b" stroke-width="2" points="90.0,576.31 302.5,452.98 515.0,349.84 727.5,249.19 940.0,148.62"/>
<circle cx="90.0" cy="576.31" r="3" fill="#8c564b"/>
<circle cx="302.5" cy="452.98" r="3" fill="#8c564b"/>
<circle cx="515.0" cy="349.84" r="3" fill="#8c564b"/>
<circle cx="727.5" cy="249.19" r="3" fill="#8c564b"/>
<circle cx="940.0" cy="148.62" r="3" fill="#8c564b"/>
<line x1="968" y1="200" x2="998" y2="200" stroke="#8c564b" stroke-width="2"/>
<text x="1006" y="204" font-family="sans-serif" font-size="12">MB4a</text>
<polyline fill="none" stroke="#e377c2" stroke-width="2" points="90.0,575.46 302.5,453.74 515.0,349.33 727.5,249.32 940.0,148.35"/>
<circle cx="90.0" cy="575.46" r="3" fill="#e377c2"/>
<circle cx="302.5" cy="453.74" r="3" fill="#e377c2"/>
<circle cx="515.0" cy="349.33" r="3" fill="#e377c2"/>
<circle cx="727.5" cy="249.32" r="3" fill="#e377c2"/>
<circle cx="940.0" cy="148.35" r="3" fill="#e377c2"/>
<line x1="968" y1="222" x2="998" y2="222" stroke="#e377c2" stroke-width="2"/>
<text x="1006" y="226" font-family="sans-serif" font-size="12">MB4b</text>
<polyline fill="none" stroke="#7f7f7f" stroke-width="2" points="90.0,500.31 302.5,372.66 515.0,270.8 727.5,170.64 940.0,70.0"/>
<circle cx="90.0" cy="500.31" r="3" fill="#7f7f7f"/>
<circle cx="302.5" cy="372.66" r="3" fill="#7f7f7f"/>
<circle cx="515.0" cy="270.8" r="3" fill="#7f7f7f"/>
<circle cx="727.5" cy="170.64" r="3" fill="#7f7f7f"/>
<circle cx="940.0" cy="70.0" r="3" fill="#7f7f7f"/>
<line x1="968" y1="244" x2="998" y2="244" stroke="#7f7f7f" stroke-width="2"/>
<text x="1006" y="248" font-family="sans-serif" font-size="12">MB4c</text>
<polyline fill="none" stroke="#bcbd22" stroke-width="2" points="90.0,622.97 302.5,512.91 515.0,409.99 727.5,342.14 940.0,241.95"/>
<circle cx="90.0" cy="622.97" r="3" fill="#bcbd22"/>
<circle cx="302.5" cy="512.91" r="3" fill="#bcbd22"/>
<circle cx="515.0" cy="409.99" r="3" fill="#bcbd22"/>
<circle cx="727.5" cy="342.14" r="3" fill="#bcbd22"/>
<circle cx="940.0" cy="241.95" r="3" fill="#bcbd22"/>
<line x1="968" y1="266" x2="998" y2="266" stroke="#bcbd22" stroke-width="2"/>
<text x="1006" y="270" font-family="sans-serif" font-size="12">MB5</text>
<polyline fill="none" stroke="#17becf" stroke-width="2" points="90.0,589.23 302.5,502.32 515.0,399.39 727.5,283.83 940.0,170.22"/>
<circle cx="90.0" cy="589.23" r="3" fill="#17becf"/>
<circle cx="302.5" cy="502.32" r="3" fill="#17becf"/>
<circle cx="515.0" cy="399.39" r="3" fill="#17becf"/>
<circle cx="727.5" cy="283.83" r="3" fill="#17becf"/>
<circle cx="940.0" cy="170.22" r="3" fill="#17becf"/>
<line x1="968" y1="288" x2="998" y2="288" stroke="#17becf" stroke-width="2"/>
<text x="1006" y="292" font-family="sans-serif" font-size="12">PB1</text>
<polyline fill="none" stroke="#4c78a8" stroke-width="2" points="90.0,572.46 302.5,497.54 515.0,407.99 727.5,304.31 940.0,171.46"/>
<circle cx="90.0" cy="572.46" r="3" fill="#4c78a8"/>
<circle cx="302.5" cy="497.54" r="3" fill="#4c78a8"/>
<circle cx="515.0" cy="407.99" r="3" fill="#4c78a8"/>
<circle cx="727.5" cy="304.31" r="3" fill="#4c78a8"/>
<circle cx="940.0" cy="171.46" r="3" fill="#4c78a8"/>
<line x1="968" y1="310" x2="998" y2="310" stroke="#4c78a8" stroke-width="2"/>
<text x="1006" y="314" font-family="sans-serif" font-size="12">PB2</text>
<polyline fill="none" stroke="#1f77b4" stroke-width="2" points="90.0,587.51 302.5,495.79 515.0,394.44 727.5,281.43 940.0,163.07"/>
<circle cx="90.0" cy="587.51" r="3" fill="#1f77b4"/>
<circle cx="302.5" cy="495.79" r="3" fill="#1f77b4"/>
<circle cx="515.0" cy="394.44" r="3" fill="#1f77b4"/>
<circle cx="727.5" cy="281.43" r="3" fill="#1f77b4"/>
<circle cx="940.0" cy="163.07" r="3" fill="#1f77b4"/>
<line x1="968" y1="332" x2="998" y2="332" stroke="#1f77b4" stroke-width="2"/>
<text x="1006" y="336" font-family="sans-serif" font-size="12">PB3</text>
<polyline fill="none" stroke="#ff7f0e" stroke-width="2" points="90.0,520.41 302.5,481.38 515.0,392.59 727.5,283.21 940.0,175.4"/>
<circle cx="90.0" cy="520.41" r="3" fill="#ff7f0e"/>
<circle cx="302.5" cy="481.38" r="3" fill="#ff7f0e"/>
<circle cx="515.0" cy="392.59" r="3" fill="#ff7f0e"/>
<circle cx="727.5" cy="283.21" r="3" fill="#ff7f0e"/>
<circle cx="940.0" cy="175.4" r="3" fill="#ff7f0e"/>
<line x1="968" y1="354" x2="998" y2="354" stroke="#ff7f0e" stroke-width="2"/>
<text x="1006" y="358" font-family="sans-serif" font-size="12">PB4</text>
<text x="515.0" y="732" text-anchor="middle" font-family="sans-serif" font-size="15">sequence length n</text>
<text x="28" y="372.5" transform="rotate(-90 28 372.5)" text-anchor="middle" font-family="sans-serif" font-size="15">time (ms)</text>
</svg>
