<svg xmlns="http://www.w3.org/2000/svg" width="760" height="580" viewBox="0 0 760 580">
<rect width="100%" height="100%" fill="white"/>
<line x1="116" y1="480" x2="714" y2="480" stroke="black"/>
<line x1="116" y1="44" x2="116" y2="480" stroke="black"/>
<line x1="116.0" y1="480" x2="116.0" y2="485" stroke="black"/>
<text x="116.0" y="510" text-anchor="middle" font-family="sans-serif" font-size="15">10⁰</text>
<line x1="285.6069116805637" y1="480" x2="285.6069116805637" y2="485" stroke="black"/>
<text x="285.6069116805637" y="510" text-anchor="middle" font-family="sans-serif" font-size="15">10¹</text>
<line x1="455.2138233611274" y1="480" x2="455.2138233611274" y2="485" stroke="black"/>
<text x="455.2138233611274" y="510" text-anchor="middle" font-family="sans-serif" font-size="15">10²</text>
<line x1="624.8207350416911" y1="480" x2="624.8207350416911" y2="485" stroke="black"/>
<text x="624.8207350416911" y="510" text-anchor="middle" font-family="sans-serif" font-size="15">10³</text>
<line x1="111" y1="472.8332986255081" x2="116" y2="472.8332986255081" stroke="black"/>
<text x="105" y="477.8332986255081" text-anchor="end" font-family="sans-serif" font-size="15">10⁻³</text>
<line x1="111" y1="323.8448685594268" x2="116" y2="323.8448685594268" stroke="black"/>
<text x="105" y="328.8448685594268" text-anchor="end" font-family="sans-serif" font-size="15">10⁻²</text>
<line x1="111" y1="174.85643849334548" x2="116" y2="174.85643849334548" stroke="black"/>
<text x="105" y="179.85643849334548" text-anchor="end" font-family="sans-serif" font-size="15">10⁻¹</text>
<polyline fill="none" stroke="#555555" stroke-width="2" stroke-dasharray="4 4" points="116.0,44.0 167.06,61.94 196.92,72.43 218.11,79.88 234.55,85.66 247.98,90.37 259.33,94.36 269.17,97.82 277.85,100.87 285.61,103.6 292.63,106.06 299.04,108.31 304.93,110.39 310.39,112.3 315.47,114.09 320.23,115.76 324.69,117.33 328.9,118.81 332.89,120.21 336.66,121.54 340.26,122.8 343.68,124.0 346.96,125.15 350.09,126.25 353.1,127.31 355.99,128.33 358.77,129.3 361.45,130.24 365.28,131.59 368.95,132.88 371.28,133.7 373.55,134.5 375.75,135.27 378.92,136.38 381.98,137.46 383.94,138.15 386.79,139.15 389.54,140.11 392.18,141.04 395.57,142.23 398.02,143.09 400.37,143.92 403.41,144.99 406.33,146.01 409.14,147.0 411.84,147.95 414.45,148.87 416.97,149.75 419.4,150.61 422.33,151.64 425.16,152.63 427.88,153.59 431.01,154.69 433.53,155.57 435.96,156.42 438.77,157.41 441.49,158.37 444.1,159.29 447.04,160.32 449.87,161.31 452.58,162.27 455.21,163.19 457.74,164.08 460.54,165.06 463.23,166.01 466.14,167.03 468.95,168.02 471.65,168.96 474.25,169.88 476.77,170.76 479.73,171.8 482.58,172.81 485.08,173.68 487.73,174.62 490.52,175.6 493.2,176.54 496.01,177.52 498.91,178.55 501.51,179.46 504.21,180.41 507.0,181.39 509.68,182.33 512.45,183.3 515.11,184.24 517.83,185.19 520.61,186.17 523.29,187.11 526.02,188.07 528.78,189.04 531.44,189.98 534.14,190.92 536.87,191.88 539.61,192.85 542.37,193.81 545.13,194.79 547.91,195.76 550.58,196.7 553.25,197.64 556.02,198.61 558.78,199.58 561.44,200.52 564.18,201.48 566.89,202.43 569.59,203.38 572.35,204.35 575.07,205.31 577.77,206.25 580.51,207.22 583.28,208.19 586.01,209.15 588.71,210.1 591.42,211.05 594.15,212.01 596.84,212.95 599.59,213.92 602.34,214.89 605.04,215.83 607.78,216.8 610.51,217.76 613.23,218.71 615.94,219.67 618.63,220.61 621.39,221.58 624.11,222.54 626.81,223.49 629.56,224.45 632.3,225.42 635.02,226.37 637.72,227.32 640.45,228.28 643.17,229.23 645.91,230.19 648.65,231.16 651.37,232.11 654.09,233.07 656.81,234.03 659.53,234.98 662.26,235.94 664.98,236.9 667.7,237.85 670.43,238.81 673.15,239.77 675.89,240.73 678.6,241.68 681.32,242.64 684.06,243.6 686.77,244.55 689.49,245.51 692.22,246.47 694.96,247.43 697.68,248.39 700.39,249.34 703.12,250.3 705.84,251.25 708.57,252.21 711.29,253.17 714.0,254.12"/>
<line x1="434" y1="64" x2="468" y2="64" stroke="#555555" stroke-width="2" stroke-dasharray="4 4"/>
<text x="478" y="69" font-family="sans-serif" font-size="14">nominal ACF β=0.4</text>
<polyline fill="none" stroke="#1f77b4" stroke-width="2" points="116.0,44.0 167.06,48.08 196.92,50.37 218.11,52.05 234.55,53.3 247.98,54.3 259.33,55.15 269.17,55.89 277.85,56.55 285.61,57.11 292.63,57.65 299.04,58.15 304.93,58.59 310.39,58.99 315.47,59.34 320.23,59.76 324.69,60.14 328.9,60.45 332.89,60.77 336.66,61.05 340.26,61.36 343.68,61.67 346.96,61.93 350.09,62.18 353.1,62.43 355.99,62.65 358.77,62.87 361.45,63.06 365.28,63.38 368.95,63.66 371.28,63.85 373.55,64.02 375.75,64.21 378.92,64.49 381.98,64.75 383.94,64.95 386.79,65.18 389.54,65.38 392.18,65.61 395.57,65.9 398.02,66.14 400.37,66.38 403.41,66.67 406.33,66.94 409.14,67.17 411.84,67.42 414.45,67.69 416.97,67.93 419.4,68.16 422.33,68.41 425.16,68.66 427.88,68.91 431.01,69.22 433.53,69.46 435.96,69.71 438.77,69.99 441.49,70.32 444.1,70.6 447.04,70.92 449.87,71.25 452.58,71.56 455.21,71.85 457.74,72.15 460.54,72.47 463.23,72.79 466.14,73.11 468.95,73.46 471.65,73.84 474.25,74.25 476.77,74.6 479.73,75.03 482.58,75.47 485.08,75.85 487.73,76.37 490.52,76.84 493.2,77.35 496.01,77.91 498.91,78.48 501.51,79.04 504.21,79.66 507.0,80.4 509.68,81.14 512.45,81.93 515.11,82.7 517.83,83.56 520.61,84.36 523.29,85.2 526.02,86.08 528.78,86.97 531.44,87.86 534.14,88.78 536.87,89.81 539.61,90.95 542.37,92.06 545.13,93.23 547.91,94.52 550.58,95.73 553.25,97.01 556.02,98.38 558.78,99.8 561.44,101.16 564.18,102.71 566.89,104.27 569.59,105.87 572.35,107.61 575.07,109.45 577.77,111.18 580.51,112.92 583.28,114.82 586.01,116.86 588.71,118.96 591.42,121.09 594.15,123.33 596.84,125.67 599.59,128.1 602.34,130.52 605.04,133.02 607.78,135.53 610.51,138.37 613.23,141.09 615.94,143.91 618.63,146.77 621.39,150.04 624.11,153.21 626.81,156.47 629.56,159.78 632.3,163.01 635.02,166.4 637.72,169.9 640.45,173.89 643.17,178.29 645.91,182.47 648.65,187.04 651.37,191.38 654.09,195.77 656.81,201.06 659.53,206.55 662.26,211.8 664.98,217.09 667.7,223.35 670.43,230.41 673.15,236.68 675.89,243.75 678.6,250.73 681.32,258.3 684.06,265.89 686.77,274.45 689.49,282.83 692.22,292.8 694.96,302.42 697.68,313.56 700.39,326.24 703.12,341.09 705.84,358.22 708.57,371.43 711.29,406.92 714.0,480.0"/>
<line x1="506.27" y1="44" x2="506.27" y2="480" stroke="#9467bd" stroke-width="2" stroke-dasharray="7 5"/>
<line x1="434" y1="86" x2="468" y2="86" stroke="#9467bd" stroke-width="2" stroke-dasharray="7 5"/>
<text x="478" y="91" font-family="sans-serif" font-size="14">generator memory limit</text>
<text x="380.0" y="536" text-anchor="middle" font-family="sans-serif" font-size="18">lag</text>
<text x="46" y="288.0" transform="rotate(-90 46 288.0)" text-anchor="middle" font-family="sans-serif" font-size="18">positive average one-hot autocorrelation</text>
</svg>
