<svg xmlns="http://www.w3.org/2000/svg" width="760" height="580" viewBox="0 0 760 580">
<rect width="100%" height="100%" fill="white"/>
<line x1="140" y1="460" x2="714" y2="460" stroke="black"/>
<line x1="140" y1="50" x2="140" y2="460" stroke="black"/>
<line x1="140.0" y1="460" x2="140.0" y2="465" stroke="black"/>
<text x="140.0" y="498" text-anchor="middle" font-family="sans-serif" font-size="19">10⁰</text>
<line x1="268.1116033798724" y1="460" x2="268.1116033798724" y2="465" stroke="black"/>
<text x="268.1116033798724" y="498" text-anchor="middle" font-family="sans-serif" font-size="19">10¹</text>
<line x1="396.2232067597448" y1="460" x2="396.2232067597448" y2="465" stroke="black"/>
<text x="396.2232067597448" y="498" text-anchor="middle" font-family="sans-serif" font-size="19">10²</text>
<line x1="524.3348101396173" y1="460" x2="524.3348101396173" y2="465" stroke="black"/>
<text x="524.3348101396173" y="498" text-anchor="middle" font-family="sans-serif" font-size="19">10³</text>
<line x1="652.4464135194896" y1="460" x2="652.4464135194896" y2="465" stroke="black"/>
<text x="652.4464135194896" y="498" text-anchor="middle" font-family="sans-serif" font-size="19">10⁴</text>
<line x1="135" y1="439.9531468068112" x2="140" y2="439.9531468068112" stroke="black"/>
<text x="126" y="445.9531468068112" text-anchor="end" font-family="sans-serif" font-size="19">10⁻⁴</text>
<line x1="135" y1="334.43404142534587" x2="140" y2="334.43404142534587" stroke="black"/>
<text x="126" y="340.43404142534587" text-anchor="end" font-family="sans-serif" font-size="19">10⁻³</text>
<line x1="135" y1="228.91493604388054" x2="140" y2="228.91493604388054" stroke="black"/>
<text x="126" y="234.91493604388054" text-anchor="end" font-family="sans-serif" font-size="19">10⁻²</text>
<line x1="135" y1="123.39583066241516" x2="140" y2="123.39583066241516" stroke="black"/>
<text x="126" y="129.39583066241516" text-anchor="end" font-family="sans-serif" font-size="19">10⁻¹</text>
<polyline fill="none" stroke="#555555" stroke-width="2" stroke-dasharray="4 4" points="140.0,50.0 178.57,62.71 201.12,70.14 217.13,75.41 229.55,79.5 239.69,82.84 248.27,85.67 255.7,88.12 262.25,90.28 268.11,92.21 273.41,93.95 278.26,95.55 282.71,97.02 286.83,98.38 290.67,99.64 294.26,100.82 297.63,101.93 300.81,102.98 303.82,103.97 306.68,104.91 309.39,105.81 311.98,106.66 314.45,107.48 316.82,108.26 319.09,109.0 321.27,109.72 323.37,110.41 326.37,111.4 329.24,112.35 331.94,113.24 334.54,114.09 337.01,114.91 339.38,115.69 341.65,116.43 344.54,117.39 347.29,118.29 349.91,119.16 352.41,119.98 355.38,120.96 358.21,121.89 360.37,122.6 362.95,123.45 365.91,124.43 368.26,125.2 370.51,125.94 373.52,126.93 376.37,127.88 378.71,128.65 381.31,129.5 384.15,130.44 386.85,131.33 389.42,132.17 391.88,132.98 394.52,133.86 397.05,134.69 399.46,135.48 402.27,136.41 404.95,137.29 407.51,138.13 410.17,139.01 412.71,139.85 415.33,140.71 418.03,141.6 420.6,142.45 423.06,143.26 425.58,144.09 428.3,144.98 430.9,145.84 433.52,146.7 436.16,147.57 438.68,148.4 441.34,149.28 443.99,150.15 446.64,151.03 449.27,151.89 451.79,152.72 454.39,153.58 457.06,154.46 459.61,155.3 462.22,156.16 464.88,157.03 467.49,157.89 470.05,158.74 472.65,159.59 475.26,160.46 477.89,161.32 480.52,162.19 483.09,163.03 485.71,163.9 488.32,164.76 490.92,165.61 493.54,166.48 496.14,167.33 498.76,168.2 501.38,169.06 503.97,169.91 506.59,170.78 509.21,171.64 511.81,172.5 514.43,173.36 517.03,174.22 519.63,175.07 522.23,175.93 524.86,176.79 527.47,177.65 530.06,178.51 532.68,179.37 535.3,180.24 537.91,181.1 540.51,181.95 543.11,182.81 545.73,183.67 548.34,184.53 550.95,185.39 553.56,186.25 556.16,187.11 558.77,187.97 561.39,188.83 564.0,189.69 566.59,190.55 569.2,191.4 571.82,192.27 574.44,193.13 577.04,193.99 579.65,194.85 582.26,195.71 584.87,196.57 587.48,197.43 590.08,198.28 592.7,199.15 595.3,200.0 597.91,200.86 600.52,201.72 603.13,202.58 605.74,203.44 608.35,204.3 610.96,205.16 613.56,206.02 616.18,206.88 618.79,207.74 621.39,208.6 624.0,209.46 626.61,210.32 629.22,211.18 631.83,212.04 634.44,212.9 637.05,213.76 639.66,214.62 642.27,215.48 644.88,216.34 647.49,217.2 650.09,218.06 652.7,218.91 655.31,219.77 657.92,220.64 660.53,221.49 663.14,222.35 665.75,223.21 668.36,224.07 670.97,224.93 673.56,225.79 675.89,226.55 677.64,227.13 714.0,239.11"/>
<line x1="364" y1="75" x2="406" y2="75" stroke="#555555" stroke-width="2" stroke-dasharray="4 4"/>
<text x="419" y="81" font-family="sans-serif" font-size="18">nominal ACF β=0.4</text>
<polyline fill="none" stroke="#1f77b4" stroke-width="2" points="140.0,50.0 178.57,60.3 201.12,63.2 217.13,68.71 229.55,71.54 239.69,73.11 248.27,74.77 255.7,77.81 262.25,79.61 268.11,81.02 273.41,82.25 278.26,83.17 282.71,84.04 286.83,84.86 290.67,85.74 294.26,87.37 297.63,88.66 300.81,89.45 303.82,90.44 306.68,91.15 309.39,91.78 311.98,92.5 314.45,92.99 316.82,93.64 319.09,94.05 321.27,94.49 323.37,94.94 326.37,95.52 329.24,96.28 331.94,97.24 334.54,98.47 337.01,99.38 339.38,100.21 341.65,100.82 344.54,101.75 347.29,102.59 349.91,103.22 352.41,103.91 355.38,104.69 358.21,105.29 360.37,105.87 362.95,106.48 365.91,107.13 368.26,107.76 370.51,108.53 373.52,109.85 376.37,111.04 378.71,112.03 381.31,112.9 384.15,113.85 386.85,114.7 389.42,115.46 391.88,116.33 394.52,117.01 397.05,117.76 399.46,118.42 402.27,119.29 404.95,120.11 407.51,120.93 410.17,122.13 412.71,123.25 415.33,124.22 418.03,125.43 420.6,126.29 423.06,127.1 425.58,128.08 428.3,128.72 430.9,129.41 433.52,130.17 436.16,130.84 438.68,131.6 441.34,132.34 443.99,133.01 446.64,134.13 449.27,135.17 451.79,136.49 454.39,137.64 457.06,138.89 459.61,140.14 462.22,141.31 464.88,142.04 467.49,143.21 470.05,144.28 472.65,145.37 475.26,146.03 477.89,146.38 480.52,146.99 483.09,147.88 485.71,148.78 488.32,150.48 490.92,151.56 493.54,153.17 496.14,154.98 498.76,156.16 501.38,156.35 503.97,157.51 506.59,158.93 509.21,160.01 511.81,160.97 514.43,162.04 517.03,162.98 519.63,164.04 522.23,164.98 524.86,166.55 527.47,168.54 530.06,170.7 532.68,172.12 535.3,173.74 537.91,175.95 540.51,177.6 543.11,179.21 545.73,180.38 548.34,182.14 550.95,183.24 553.56,184.62 556.16,185.97 558.77,186.91 561.39,188.61 564.0,191.0 566.59,192.66 569.2,195.76 571.82,197.91 574.44,200.07 577.04,201.61 579.65,201.63 582.26,203.43 584.87,205.35 587.48,206.59 590.08,209.17 592.7,211.38 595.3,216.35 597.91,220.28 600.52,221.43 603.13,227.28 605.74,227.41 608.35,226.82 610.96,227.75 613.56,229.88 616.18,233.67 618.79,239.7 621.39,240.73 624.0,242.86 626.61,251.54 629.22,256.02 631.83,262.03 634.44,256.07 637.05,251.88 639.66,256.36 642.27,264.72 644.88,268.26 647.49,290.27 650.09,278.31 652.7,289.82 655.31,268.03 657.92,269.13 660.53,284.66 663.14,294.17 665.75,309.73 668.36,289.46 670.97,307.06 673.56,333.37 675.89,402.98 677.64,460.0 714.0,412.75"/>
<line x1="652.44" y1="50" x2="652.44" y2="460" stroke="#d62728" stroke-width="2" stroke-dasharray="7 5"/>
<line x1="364" y1="103" x2="406" y2="103" stroke="#d62728" stroke-width="2" stroke-dasharray="7 5"/>
<text x="419" y="109" font-family="sans-serif" font-size="18">finite-sample limit n/10</text>
<text x="380.0" y="530" text-anchor="middle" font-family="sans-serif" font-size="22">lag</text>
<text x="52" y="288.0" transform="rotate(-90 52 288.0)" text-anchor="middle" font-family="sans-serif" font-size="22">positive average one-hot autocorrelation</text>
</svg>
