<svg xmlns="http://www.w3.org/2000/svg" width="760" height="580" viewBox="0 0 760 580">
<rect width="100%" height="100%" fill="white"/>
<line x1="116" y1="480" x2="714" y2="480" stroke="black"/>
<line x1="116" y1="44" x2="116" y2="480" stroke="black"/>
<line x1="116.0" y1="480" x2="116.0" y2="485" stroke="black"/>
<text x="116.0" y="510" text-anchor="middle" font-family="sans-serif" font-size="15">10⁰</text>
<line x1="243.54856392197223" y1="480" x2="243.54856392197223" y2="485" stroke="black"/>
<text x="243.54856392197223" y="510" text-anchor="middle" font-family="sans-serif" font-size="15">10¹</text>
<line x1="371.09712784394446" y1="480" x2="371.09712784394446" y2="485" stroke="black"/>
<text x="371.09712784394446" y="510" text-anchor="middle" font-family="sans-serif" font-size="15">10²</text>
<line x1="498.64569176591664" y1="480" x2="498.64569176591664" y2="485" stroke="black"/>
<text x="498.64569176591664" y="510" text-anchor="middle" font-family="sans-serif" font-size="15">10³</text>
<line x1="626.1942556878889" y1="480" x2="626.1942556878889" y2="485" stroke="black"/>
<text x="626.1942556878889" y="510" text-anchor="middle" font-family="sans-serif" font-size="15">10⁴</text>
<line x1="111" y1="443.2143158424382" x2="116" y2="443.2143158424382" stroke="black"/>
<text x="105" y="448.2143158424382" text-anchor="end" font-family="sans-serif" font-size="15">10⁻⁵</text>
<line x1="111" y1="326.97022330485487" x2="116" y2="326.97022330485487" stroke="black"/>
<text x="105" y="331.97022330485487" text-anchor="end" font-family="sans-serif" font-size="15">10⁻⁴</text>
<line x1="111" y1="210.7261307672715" x2="116" y2="210.7261307672715" stroke="black"/>
<text x="105" y="215.7261307672715" text-anchor="end" font-family="sans-serif" font-size="15">10⁻³</text>
<line x1="111" y1="94.4820382296881" x2="116" y2="94.4820382296881" stroke="black"/>
<text x="105" y="99.4820382296881" text-anchor="end" font-family="sans-serif" font-size="15">10⁻²</text>
<polyline fill="none" stroke="#555555" stroke-width="2" stroke-dasharray="4 4" points="116.0,44.0 154.4,71.99 176.86,88.37 192.79,99.99 205.15,109.0 215.25,116.36 223.79,122.59 231.19,127.98 237.71,132.74 243.55,137.0 248.83,140.84 253.65,144.36 258.08,147.59 262.19,150.58 266.01,153.37 269.58,155.98 272.94,158.43 276.11,160.73 279.1,162.92 281.94,164.99 284.65,166.96 287.22,168.84 289.69,170.63 292.04,172.35 294.31,174.0 296.48,175.59 299.58,177.84 302.53,180.0 305.31,182.03 307.98,183.97 310.51,185.82 313.72,188.16 316.76,190.37 318.94,191.96 321.7,193.97 324.98,196.37 327.47,198.18 329.86,199.92 332.69,201.99 335.4,203.96 337.97,205.84 340.92,207.99 343.71,210.02 346.37,211.96 348.91,213.81 351.73,215.87 354.41,217.83 356.97,219.69 359.76,221.72 362.41,223.66 365.25,225.73 367.96,227.7 370.53,229.58 373.26,231.57 376.12,233.65 378.83,235.63 381.42,237.52 384.33,239.64 387.1,241.66 389.73,243.58 392.43,245.55 395.19,247.56 397.99,249.59 400.65,251.54 403.34,253.5 406.06,255.48 408.79,257.47 411.53,259.47 414.26,261.46 416.99,263.45 419.7,265.43 422.51,267.47 425.28,269.5 427.93,271.43 430.64,273.4 433.41,275.42 436.13,277.4 438.88,279.41 441.58,281.38 444.31,283.37 447.05,285.36 449.72,287.32 452.47,289.32 455.2,291.31 457.92,293.3 460.63,295.27 463.31,297.23 466.07,299.24 468.8,301.22 471.53,303.22 474.26,305.21 476.99,307.2 479.71,309.18 482.41,311.15 485.18,313.17 487.9,315.15 490.62,317.13 493.33,319.11 496.01,321.06 498.78,323.08 501.5,325.07 504.25,327.07 506.99,329.07 509.68,331.03 512.43,333.04 515.13,335.0 517.85,336.99 520.54,338.95 523.29,340.95 526.0,342.93 528.71,344.91 531.48,346.93 534.18,348.89 536.91,350.89 539.6,352.85 542.39,354.88 545.1,356.86 547.79,358.82 550.55,360.83 553.19,362.75 555.98,364.79 558.69,366.76 561.42,368.76 564.17,370.76 566.88,372.73 569.63,374.74 572.37,376.74 575.09,378.72 577.8,380.7 580.49,382.66 583.2,384.64 585.93,386.63 588.67,388.62 591.44,390.64 594.11,392.59 596.85,394.59 599.65,396.63 602.28,398.55 605.02,400.54 607.72,402.51 610.41,404.47 613.21,406.51 615.9,408.47 618.62,410.46 621.31,412.42 624.07,414.44 626.81,416.43 629.55,418.43 632.31,420.44 634.97,422.38 637.69,424.37 640.45,426.38 643.11,428.31 645.92,430.36 648.59,432.31 651.35,434.32 654.05,436.29 656.79,438.29 659.57,440.31 662.22,442.25 665.0,444.27 667.73,446.26 670.39,448.2 673.11,450.19 675.87,452.2 678.63,454.21 681.36,456.2 684.05,458.17 686.72,460.11 689.48,462.13 692.24,464.13 694.83,466.02 697.68,468.1 700.33,470.03 703.06,472.03 705.86,474.06 708.58,476.05 711.2,477.96 714.0,480.0"/>
<line x1="434" y1="64" x2="468" y2="64" stroke="#555555" stroke-width="2" stroke-dasharray="4 4"/>
<text x="478" y="69" font-family="sans-serif" font-size="14">nominal ACF β=0.8</text>
<polyline fill="none" stroke="#1f77b4" stroke-width="2" points="116.0,44.0 154.4,66.59 176.86,81.34 192.79,90.73 205.15,97.87 215.25,105.38 223.79,109.65 231.19,118.16 237.71,120.39 243.55,119.24 248.83,124.06 253.65,126.91 258.08,127.25 262.19,136.95 266.01,132.59 269.58,134.31 272.94,139.98 276.11,131.6 279.1,138.29 281.94,146.65 284.65,143.9 287.22,156.06 289.69,149.29 292.04,159.57 294.31,143.45 296.48,150.36 299.58,154.12 302.53,151.81 305.31,151.85 307.98,159.45 310.51,162.4 313.72,156.1 316.76,154.65 318.94,157.74 321.7,161.26 324.98,160.14 327.47,170.74 329.86,162.83 332.69,173.15 335.4,168.11 337.97,174.12 340.92,170.6 343.71,174.63 346.37,174.72 348.91,173.69 351.73,177.83 354.41,177.49 356.97,183.21 359.76,188.93 362.41,180.96 365.25,188.25 367.96,183.19 370.53,185.52 373.26,187.93 376.12,189.8 378.83,193.95 381.42,190.87 384.33,196.76 387.1,191.19 389.73,194.05 392.43,194.47 395.19,197.47 397.99,205.42 400.65,200.9 403.34,199.43 406.06,199.26 408.79,206.34 411.53,203.85 414.26,203.64 416.99,213.04 419.7,205.81 422.51,211.39 425.28,206.2 427.93,208.06 430.64,212.0 433.41,216.22 436.13,216.57 438.88,211.53 441.58,219.02 444.31,217.92 447.05,225.59 449.72,217.18 452.47,231.32 455.2,222.55 457.92,219.75 460.63,233.58 463.31,230.6 466.07,235.31 468.8,229.73 471.53,230.18 474.26,233.61 476.99,231.93 479.71,233.02 482.41,236.73 485.18,236.14 487.9,239.18 490.62,236.04 493.33,242.57 496.01,234.81 498.78,235.49 501.5,233.1 504.25,235.8 506.99,242.68 509.68,249.34 512.43,239.62 515.13,237.89 517.85,242.52 520.54,247.42 523.29,246.56 526.0,243.57 528.71,244.89 531.48,249.55 534.18,246.88 536.91,252.88 539.6,249.22 542.39,246.37 545.1,253.14 547.79,250.26 550.55,257.33 553.19,257.43 555.98,252.29 558.69,250.56 561.42,257.52 564.17,256.19 566.88,262.11 569.63,256.19 572.37,258.8 575.09,261.04 577.8,262.24 580.49,267.79 583.2,258.87 585.93,263.11 588.67,263.29 591.44,262.61 594.11,265.53 596.85,265.29 599.65,268.19 602.28,267.58 605.02,262.93 607.72,269.4 610.41,271.83 613.21,265.53 615.9,265.54 618.62,267.83 621.31,265.65 624.07,269.12 626.81,269.0 629.55,272.08 632.31,265.13 634.97,267.25 637.69,273.4 640.45,275.14 643.11,273.94 645.92,269.92 648.59,274.1 651.35,275.28 654.05,276.67 656.79,273.27 659.57,274.97 662.22,276.17 665.0,278.18 667.73,278.19 670.39,278.95 673.11,277.39 675.87,278.0 678.63,282.3 681.36,281.07 684.05,276.8 686.72,280.92 689.48,277.51 692.24,279.69 694.83,279.23 697.68,282.49 700.33,280.34 703.06,280.82 705.86,278.6 708.58,280.1 711.2,278.34 714.0,277.0"/>
<line x1="626.19" y1="44" x2="626.19" y2="480" stroke="#d62728" stroke-width="2" stroke-dasharray="7 5"/>
<line x1="434" y1="86" x2="468" y2="86" stroke="#d62728" stroke-width="2" stroke-dasharray="7 5"/>
<text x="478" y="91" font-family="sans-serif" font-size="14">finite-sample limit n/10</text>
<line x1="664.59" y1="44" x2="664.59" y2="480" stroke="#9467bd" stroke-width="2" stroke-dasharray="7 5"/>
<line x1="434" y1="108" x2="468" y2="108" stroke="#9467bd" stroke-width="2" stroke-dasharray="7 5"/>
<text x="478" y="113" font-family="sans-serif" font-size="14">generator memory limit</text>
<text x="380.0" y="536" text-anchor="middle" font-family="sans-serif" font-size="18">lag</text>
<text x="46" y="288.0" transform="rotate(-90 46 288.0)" text-anchor="middle" font-family="sans-serif" font-size="18">positive average one-hot autocorrelation</text>
</svg>
