<svg xmlns="http://www.w3.org/2000/svg" width="760" height="580" viewBox="0 0 760 580">
<rect width="100%" height="100%" fill="white"/>
<line x1="116" y1="480" x2="714" y2="480" stroke="black"/>
<line x1="116" y1="44" x2="116" y2="480" stroke="black"/>
<line x1="116.0" y1="480" x2="116.0" y2="485" stroke="black"/>
<text x="116.0" y="510" text-anchor="middle" font-family="sans-serif" font-size="15">10⁰</text>
<line x1="243.5161574924412" y1="480" x2="243.5161574924412" y2="485" stroke="black"/>
<text x="243.5161574924412" y="510" text-anchor="middle" font-family="sans-serif" font-size="15">10¹</text>
<line x1="371.0323149848824" y1="480" x2="371.0323149848824" y2="485" stroke="black"/>
<text x="371.0323149848824" y="510" text-anchor="middle" font-family="sans-serif" font-size="15">10²</text>
<line x1="498.54847247732357" y1="480" x2="498.54847247732357" y2="485" stroke="black"/>
<text x="498.54847247732357" y="510" text-anchor="middle" font-family="sans-serif" font-size="15">10³</text>
<line x1="626.0646299697648" y1="480" x2="626.0646299697648" y2="485" stroke="black"/>
<text x="626.0646299697648" y="510" text-anchor="middle" font-family="sans-serif" font-size="15">10⁴</text>
<line x1="111" y1="469.3822510172388" x2="116" y2="469.3822510172388" stroke="black"/>
<text x="105" y="474.3822510172388" text-anchor="end" font-family="sans-serif" font-size="15">10⁻⁴</text>
<line x1="111" y1="353.4815432627329" x2="116" y2="353.4815432627329" stroke="black"/>
<text x="105" y="358.4815432627329" text-anchor="end" font-family="sans-serif" font-size="15">10⁻³</text>
<line x1="111" y1="237.58083550822695" x2="116" y2="237.58083550822695" stroke="black"/>
<text x="105" y="242.58083550822695" text-anchor="end" font-family="sans-serif" font-size="15">10⁻²</text>
<line x1="111" y1="121.68012775372108" x2="116" y2="121.68012775372108" stroke="black"/>
<text x="105" y="126.68012775372108" text-anchor="end" font-family="sans-serif" font-size="15">10⁻¹</text>
<polyline fill="none" stroke="#555555" stroke-width="2" stroke-dasharray="4 4" points="116.0,105.53 154.39,119.48 176.84,127.65 192.77,133.44 205.13,137.93 215.23,141.6 223.76,144.71 231.16,147.4 237.68,149.77 243.52,151.89 248.79,153.81 253.61,155.56 258.05,157.17 262.15,158.66 265.97,160.05 269.54,161.35 272.9,162.57 276.07,163.72 279.06,164.81 281.9,165.84 284.6,166.83 287.18,167.76 289.64,168.66 292.0,169.51 294.26,170.34 296.43,171.13 299.53,172.25 302.48,173.32 305.26,174.34 307.93,175.31 310.46,176.23 313.67,177.39 315.97,178.23 318.17,179.03 320.97,180.05 324.28,181.25 327.42,182.39 329.8,183.26 332.64,184.29 335.35,185.27 337.92,186.21 340.86,187.28 343.65,188.29 346.31,189.26 348.85,190.18 351.28,191.07 353.98,192.05 356.91,193.11 359.7,194.13 362.35,195.09 364.88,196.01 367.6,197.0 370.47,198.04 373.2,199.04 375.8,199.98 378.52,200.97 381.35,202.0 384.05,202.98 386.82,203.99 389.66,205.02 392.36,206.0 394.94,206.94 397.57,207.9 400.41,208.93 403.27,209.97 405.99,210.96 408.58,211.9 411.32,212.89 414.06,213.89 416.79,214.88 419.51,215.87 422.21,216.85 425.0,217.87 427.65,218.83 430.37,219.82 433.14,220.83 435.87,221.82 438.55,222.8 441.27,223.78 444.0,224.78 446.68,225.75 449.44,226.75 452.19,227.75 454.87,228.73 457.61,229.72 460.32,230.71 463.02,231.69 465.74,232.68 468.47,233.67 471.21,234.67 473.91,235.65 476.61,236.63 479.34,237.63 482.09,238.63 484.82,239.62 487.52,240.6 490.25,241.59 492.98,242.59 495.7,243.57 498.43,244.57 501.14,245.55 503.85,246.53 506.57,247.53 509.3,248.52 512.04,249.51 514.77,250.51 517.49,251.5 520.2,252.48 522.92,253.47 525.65,254.46 528.37,255.45 531.08,256.44 533.8,257.42 536.53,258.42 539.25,259.41 541.97,260.39 544.69,261.38 547.42,262.38 550.14,263.37 552.87,264.36 555.58,265.34 558.3,266.33 561.03,267.32 563.75,268.31 566.47,269.3 569.2,270.29 571.92,271.28 574.64,272.27 577.36,273.26 580.08,274.25 582.8,275.24 585.52,276.23 588.24,277.22 590.96,278.21 593.69,279.2 596.41,280.19 599.13,281.18 601.85,282.17 604.57,283.16 607.3,284.15 610.02,285.13 612.74,286.13 615.45,287.11 618.22,288.12 620.9,289.09 623.62,290.08 626.33,291.06 629.04,292.05 631.75,293.04 634.54,294.05 637.22,295.02 639.94,296.02 642.74,297.03 645.32,297.97 648.19,299.01 650.75,299.94 653.8,301.05 656.13,301.9 659.06,302.97 661.65,303.91 664.38,304.9 667.24,305.94 670.1,306.98 672.64,307.9 675.17,308.82 678.39,309.99 680.56,310.78 683.76,311.94 686.41,312.91 688.71,313.75 691.37,314.71 694.02,315.68 697.26,316.85 700.18,317.92 702.81,318.87 704.29,319.41 708.09,320.79 714.0,322.94"/>
<line x1="434" y1="64" x2="468" y2="64" stroke="#555555" stroke-width="2" stroke-dasharray="4 4"/>
<text x="478" y="69" font-family="sans-serif" font-size="14">nominal ACF β=0.4</text>
<polyline fill="none" stroke="#1f77b4" stroke-width="2" points="116.0,44.0 154.39,61.3 176.84,68.4 192.77,75.22 205.13,79.5 215.23,83.61 223.76,86.62 231.16,89.76 237.68,92.21 243.52,94.43 248.79,96.52 253.61,98.59 258.05,100.28 262.15,101.83 265.97,103.13 269.54,104.62 272.9,105.96 276.07,107.48 279.06,108.45 281.9,109.46 284.6,110.29 287.18,111.84 289.64,112.86 292.0,113.46 295.35,114.64 298.52,115.91 300.54,117.15 303.42,117.87 306.17,119.2 308.78,120.59 311.29,121.42 313.67,122.47 316.71,123.77 319.59,124.77 322.32,125.91 324.93,127.25 327.42,128.22 329.8,129.53 332.09,130.46 334.81,131.85 337.92,132.93 340.38,133.78 342.74,134.75 345.44,135.66 348.02,136.74 350.88,137.76 353.6,139.17 356.19,139.9 359.01,140.54 361.7,141.66 364.26,142.72 366.71,144.06 369.34,145.1 372.12,146.61 374.77,147.14 377.3,148.68 379.96,149.52 382.72,150.99 385.34,151.58 388.05,153.18 390.83,154.22 393.48,156.2 396.01,156.54 398.59,157.86 401.22,159.33 403.88,160.26 406.57,161.7 409.27,162.7 411.98,162.99 414.57,163.82 417.15,165.31 419.85,166.86 422.54,168.03 425.21,168.61 427.85,170.35 430.47,171.66 433.14,173.68 435.79,175.91 438.47,177.2 441.19,178.95 443.78,180.13 446.4,181.05 449.1,181.83 451.74,181.8 454.38,183.37 457.02,186.52 459.66,185.09 462.33,187.38 464.98,191.0 467.66,194.13 470.3,193.59 472.96,192.94 475.62,193.97 478.27,196.82 480.92,197.94 483.56,197.01 486.22,197.49 488.89,199.34 491.56,202.86 494.2,202.97 496.86,203.24 499.5,205.67 502.13,206.05 504.79,205.32 507.45,208.95 510.1,207.18 512.75,209.04 515.41,212.15 518.08,212.19 520.74,215.62 523.38,216.28 526.04,213.59 528.69,214.49 531.34,214.32 534.0,215.39 536.65,214.0 539.3,219.69 541.96,221.76 544.61,222.97 547.27,226.1 549.93,226.65 552.58,228.39 555.24,230.76 557.9,231.43 560.54,228.47 563.19,230.19 565.85,236.62 568.5,239.39 571.15,245.61 573.81,248.41 576.47,255.15 579.12,259.94 581.78,262.33 584.43,263.25 587.08,274.77 589.74,281.6 592.39,282.0 595.04,272.36 597.7,276.02 600.35,273.97 603.0,266.44 605.66,265.26 608.32,283.05 610.97,286.34 613.62,297.7 616.27,307.22 618.93,304.82 621.58,300.97 624.24,307.96 626.89,315.53 629.54,319.48 632.18,319.16 634.86,294.37 637.51,296.73 640.14,315.93 642.84,334.27 645.46,321.96 648.14,329.88 650.68,335.9 653.94,349.92 655.82,366.36 659.12,406.99 661.61,392.9 663.78,409.42 666.04,406.64 669.73,387.14 671.66,372.01 674.7,374.44 677.95,375.52 680.07,379.57 682.69,378.67 685.45,389.26 687.58,373.7 690.45,410.55 699.86,480.0"/>
<line x1="626.06" y1="44" x2="626.06" y2="480" stroke="#d62728" stroke-width="2" stroke-dasharray="7 5"/>
<line x1="434" y1="86" x2="468" y2="86" stroke="#d62728" stroke-width="2" stroke-dasharray="7 5"/>
<text x="478" y="91" font-family="sans-serif" font-size="14">finite-sample limit n/10</text>
<text x="380.0" y="536" text-anchor="middle" font-family="sans-serif" font-size="18">lag</text>
<text x="46" y="288.0" transform="rotate(-90 46 288.0)" text-anchor="middle" font-family="sans-serif" font-size="18">positive latent autocorrelation</text>
</svg>
