<svg xmlns="http://www.w3.org/2000/svg" width="760" height="580" viewBox="0 0 760 580">
<rect width="100%" height="100%" fill="white"/>
<line x1="116" y1="480" x2="714" y2="480" stroke="black"/>
<line x1="116" y1="44" x2="116" y2="480" stroke="black"/>
<line x1="116.0" y1="480" x2="116.0" y2="485" stroke="black"/>
<text x="116.0" y="510" text-anchor="middle" font-family="sans-serif" font-size="15">10⁰</text>
<line x1="243.5161574924412" y1="480" x2="243.5161574924412" y2="485" stroke="black"/>
<text x="243.5161574924412" y="510" text-anchor="middle" font-family="sans-serif" font-size="15">10¹</text>
<line x1="371.0323149848824" y1="480" x2="371.0323149848824" y2="485" stroke="black"/>
<text x="371.0323149848824" y="510" text-anchor="middle" font-family="sans-serif" font-size="15">10²</text>
<line x1="498.54847247732357" y1="480" x2="498.54847247732357" y2="485" stroke="black"/>
<text x="498.54847247732357" y="510" text-anchor="middle" font-family="sans-serif" font-size="15">10³</text>
<line x1="626.0646299697648" y1="480" x2="626.0646299697648" y2="485" stroke="black"/>
<text x="626.0646299697648" y="510" text-anchor="middle" font-family="sans-serif" font-size="15">10⁴</text>
<line x1="111" y1="412.2848862912064" x2="116" y2="412.2848862912064" stroke="black"/>
<text x="105" y="417.2848862912064" text-anchor="end" font-family="sans-serif" font-size="15">10⁻⁴</text>
<line x1="111" y1="294.97298825721845" x2="116" y2="294.97298825721845" stroke="black"/>
<text x="105" y="299.97298825721845" text-anchor="end" font-family="sans-serif" font-size="15">10⁻³</text>
<line x1="111" y1="177.66109022323047" x2="116" y2="177.66109022323047" stroke="black"/>
<text x="105" y="182.66109022323047" text-anchor="end" font-family="sans-serif" font-size="15">10⁻²</text>
<line x1="111" y1="60.3491921892425" x2="116" y2="60.3491921892425" stroke="black"/>
<text x="105" y="65.3491921892425" text-anchor="end" font-family="sans-serif" font-size="15">10⁻¹</text>
<polyline fill="none" stroke="#555555" stroke-width="2" stroke-dasharray="4 4" points="116.0,44.0 154.39,58.13 176.84,66.39 192.77,72.25 205.13,76.8 215.23,80.51 223.76,83.66 231.16,86.38 237.68,88.78 243.52,90.92 248.79,92.87 253.61,94.64 258.05,96.27 262.15,97.78 265.97,99.19 269.54,100.5 272.9,101.74 276.07,102.9 279.06,104.01 281.9,105.05 284.6,106.04 287.18,106.99 289.64,107.9 292.0,108.77 294.26,109.6 296.43,110.4 299.53,111.54 302.48,112.62 305.26,113.65 307.93,114.63 310.46,115.56 313.67,116.74 315.97,117.59 318.17,118.4 320.97,119.43 324.28,120.65 327.42,121.8 329.8,122.68 332.64,123.72 335.35,124.72 337.92,125.66 340.86,126.75 343.65,127.77 346.31,128.75 348.85,129.69 351.28,130.58 353.98,131.57 356.91,132.65 359.7,133.68 362.35,134.66 364.88,135.59 367.6,136.59 370.47,137.64 373.2,138.65 375.8,139.6 378.52,140.61 381.35,141.65 384.05,142.64 386.82,143.66 389.66,144.7 392.36,145.7 394.94,146.65 397.57,147.62 400.41,148.66 403.27,149.71 405.99,150.71 408.58,151.67 411.32,152.67 414.06,153.68 416.79,154.69 419.51,155.69 422.21,156.68 425.0,157.71 427.65,158.68 430.37,159.69 433.14,160.71 435.87,161.71 438.55,162.7 441.27,163.7 444.0,164.7 446.68,165.69 449.44,166.7 452.19,167.71 454.87,168.7 457.61,169.71 460.32,170.71 463.02,171.7 465.74,172.7 468.47,173.71 471.21,174.72 473.91,175.71 476.61,176.7 479.34,177.71 482.09,178.72 484.82,179.72 487.52,180.72 490.25,181.72 492.98,182.73 495.7,183.73 498.43,184.73 501.14,185.73 503.85,186.72 506.57,187.73 509.3,188.73 512.04,189.74 514.77,190.74 517.49,191.75 520.2,192.74 522.92,193.74 525.65,194.75 528.37,195.75 531.08,196.75 533.8,197.75 536.53,198.75 539.25,199.75 541.97,200.75 544.69,201.76 547.42,202.76 550.14,203.76 552.87,204.76 555.58,205.76 558.3,206.76 561.03,207.77 563.75,208.77 566.47,209.77 569.2,210.77 571.92,211.77 574.64,212.78 577.36,213.78 580.08,214.78 582.8,215.78 585.52,216.78 588.24,217.78 590.96,218.78 593.69,219.78 596.41,220.79 599.13,221.79 601.85,222.79 604.57,223.79 607.3,224.79 610.02,225.79 612.74,226.8 615.45,227.79 618.22,228.81 620.9,229.8 623.62,230.8 626.33,231.8 629.04,232.8 631.75,233.79 634.54,234.82 637.22,235.8 639.94,236.81 642.74,237.83 645.32,238.79 648.19,239.84 650.75,240.78 653.8,241.91 656.13,242.76 659.06,243.84 661.65,244.79 664.38,245.8 667.24,246.85 670.1,247.9 672.64,248.84 675.17,249.77 678.39,250.95 680.56,251.75 683.76,252.93 686.41,253.9 688.71,254.75 691.37,255.73 694.02,256.71 697.26,257.9 700.18,258.97 702.81,259.94 704.29,260.48 708.09,261.88 714.0,264.06"/>
<line x1="434" y1="64" x2="468" y2="64" stroke="#555555" stroke-width="2" stroke-dasharray="4 4"/>
<text x="478" y="69" font-family="sans-serif" font-size="14">nominal ACF β=0.4</text>
<polyline fill="none" stroke="#1f77b4" stroke-width="2" points="116.0,44.0 154.39,65.92 176.84,74.51 192.77,82.49 205.13,87.62 215.23,92.61 223.76,95.04 231.16,98.96 237.68,102.3 243.52,103.87 248.79,107.24 253.61,109.02 258.05,110.81 262.15,112.52 265.97,113.94 269.54,115.71 272.9,116.56 276.07,118.34 279.06,120.06 281.9,120.62 284.6,122.39 287.18,123.57 289.64,125.14 292.0,125.71 294.26,125.94 296.43,126.69 299.53,128.15 302.48,129.57 305.26,130.89 307.93,132.81 310.46,133.04 313.67,134.73 315.97,136.14 318.17,137.49 320.97,136.9 324.28,139.34 327.42,140.68 329.8,141.92 332.64,143.49 335.35,144.44 337.92,146.47 340.86,147.71 343.65,147.27 346.31,149.26 348.85,149.72 351.28,151.53 353.98,152.53 356.91,152.99 359.7,154.84 362.35,155.88 364.88,157.13 367.6,157.97 370.47,159.58 373.2,160.58 375.8,162.65 378.52,163.23 381.35,164.55 384.05,165.74 386.82,166.26 389.66,168.01 392.36,168.66 394.94,169.69 397.57,170.75 400.41,172.22 403.27,173.89 405.99,176.07 408.58,176.67 411.32,177.93 414.06,179.2 416.79,180.25 419.51,181.8 422.21,182.84 425.0,182.94 427.65,185.08 430.37,186.73 433.14,188.73 435.87,190.12 438.55,192.19 441.27,193.8 444.0,194.67 446.68,195.61 449.44,197.19 452.19,196.84 454.87,199.63 457.61,201.38 460.32,200.0 463.02,203.31 465.74,208.49 468.47,210.07 471.21,209.13 473.91,207.73 476.61,211.26 479.34,213.46 482.09,213.8 484.82,212.75 487.52,213.66 490.25,215.53 492.98,219.27 495.7,217.34 498.43,220.58 501.14,221.96 503.85,220.69 506.57,224.29 509.3,225.02 512.04,222.23 514.77,228.08 517.49,227.98 520.2,230.28 522.92,232.67 525.65,229.48 528.37,230.81 531.08,230.8 533.8,230.85 536.53,230.09 539.25,236.1 541.97,237.99 544.69,238.74 547.42,241.8 550.14,243.54 552.87,243.92 555.58,247.91 558.3,246.99 561.03,244.73 563.75,247.11 566.47,252.43 569.2,256.08 571.92,261.22 574.64,265.64 577.36,270.87 580.08,280.35 582.8,277.19 585.52,283.43 588.24,295.62 590.96,302.3 593.69,291.43 596.41,296.0 599.13,289.37 601.85,286.04 604.57,280.64 607.3,294.81 610.02,303.58 612.74,306.28 615.45,314.35 618.22,327.25 620.9,322.55 623.62,315.36 626.33,331.23 629.04,334.95 631.75,332.86 634.54,316.11 637.22,311.8 639.94,324.3 642.74,337.37 645.32,329.58 648.19,333.16 650.75,341.17 653.8,351.12 656.13,359.8 659.06,375.71 661.65,373.79 664.38,386.86 667.24,384.36 670.1,366.83 672.64,371.74 675.17,366.69 678.39,372.62 680.56,363.37 683.76,376.72 686.41,369.49 688.71,371.59 691.37,374.95 694.02,480.0 697.26,408.08 700.18,385.8 702.81,386.69 704.29,373.96 708.09,466.93 714.0,394.58"/>
<line x1="626.06" y1="44" x2="626.06" y2="480" stroke="#d62728" stroke-width="2" stroke-dasharray="7 5"/>
<line x1="434" y1="86" x2="468" y2="86" stroke="#d62728" stroke-width="2" stroke-dasharray="7 5"/>
<text x="478" y="91" font-family="sans-serif" font-size="14">finite-sample limit n/10</text>
<text x="380.0" y="536" text-anchor="middle" font-family="sans-serif" font-size="18">lag</text>
<text x="46" y="288.0" transform="rotate(-90 46 288.0)" text-anchor="middle" font-family="sans-serif" font-size="18">positive average one-hot autocorrelation</text>
</svg>
