<svg xmlns="http://www.w3.org/2000/svg" width="760" height="580" viewBox="0 0 760 580">
<rect width="100%" height="100%" fill="white"/>
<line x1="140" y1="460" x2="714" y2="460" stroke="black"/>
<line x1="140" y1="50" x2="140" y2="460" stroke="black"/>
<line x1="140.0" y1="460" x2="140.0" y2="465" stroke="black"/>
<text x="140.0" y="498" text-anchor="middle" font-family="sans-serif" font-size="19">10⁰</text>
<line x1="262.4061973846565" y1="460" x2="262.4061973846565" y2="465" stroke="black"/>
<text x="262.4061973846565" y="498" text-anchor="middle" font-family="sans-serif" font-size="19">10¹</text>
<line x1="384.81239476931296" y1="460" x2="384.81239476931296" y2="465" stroke="black"/>
<text x="384.81239476931296" y="498" text-anchor="middle" font-family="sans-serif" font-size="19">10²</text>
<line x1="507.2185921539695" y1="460" x2="507.2185921539695" y2="465" stroke="black"/>
<text x="507.2185921539695" y="498" text-anchor="middle" font-family="sans-serif" font-size="19">10³</text>
<line x1="629.6247895386259" y1="460" x2="629.6247895386259" y2="465" stroke="black"/>
<text x="629.6247895386259" y="498" text-anchor="middle" font-family="sans-serif" font-size="19">10⁴</text>
<line x1="135" y1="373.72699211826387" x2="140" y2="373.72699211826387" stroke="black"/>
<text x="126" y="379.72699211826387" text-anchor="end" font-family="sans-serif" font-size="19">10⁻³</text>
<line x1="135" y1="248.37307723445986" x2="140" y2="248.37307723445986" stroke="black"/>
<text x="126" y="254.37307723445986" text-anchor="end" font-family="sans-serif" font-size="19">10⁻²</text>
<line x1="135" y1="123.01916235065579" x2="140" y2="123.01916235065579" stroke="black"/>
<text x="126" y="129.0191623506558" text-anchor="end" font-family="sans-serif" font-size="19">10⁻¹</text>
<polyline fill="none" stroke="#555555" stroke-width="2" stroke-dasharray="4 4" points="140.0,50.0 176.85,65.09 198.4,73.92 213.7,80.19 225.56,85.05 235.25,89.02 243.45,92.37 250.54,95.28 256.81,97.85 262.41,100.14 267.47,102.22 272.1,104.11 276.35,105.85 280.29,107.47 283.96,108.97 287.39,110.38 290.61,111.7 293.65,112.94 296.53,114.12 299.25,115.24 301.85,116.3 304.32,117.31 306.68,118.28 308.95,119.21 311.12,120.09 313.2,120.95 316.17,122.17 319.01,123.33 321.68,124.42 324.24,125.47 326.67,126.47 329.75,127.73 332.67,128.92 334.76,129.78 337.4,130.86 340.56,132.15 342.95,133.13 345.23,134.07 347.96,135.19 350.56,136.25 353.03,137.26 355.85,138.42 358.53,139.52 361.08,140.56 363.52,141.56 366.22,142.67 368.8,143.72 371.26,144.73 373.93,145.83 376.48,146.87 379.2,147.99 381.8,149.05 384.27,150.06 386.89,151.14 389.63,152.26 392.24,153.32 394.72,154.34 397.51,155.49 400.17,156.57 402.69,157.61 405.29,158.67 407.93,159.75 410.62,160.85 413.17,161.9 415.76,162.96 418.37,164.03 420.99,165.1 423.61,166.18 426.24,167.25 428.85,168.32 431.46,169.39 434.15,170.49 436.82,171.59 439.35,172.62 441.95,173.69 444.61,174.78 447.22,175.85 449.86,176.93 452.46,177.99 455.07,179.06 457.7,180.14 460.27,181.19 462.9,182.27 465.53,183.35 468.14,184.42 470.74,185.48 473.31,186.54 475.96,187.62 478.58,188.69 481.2,189.77 483.82,190.84 486.4,191.9 489.01,192.96 491.64,194.04 494.28,195.12 496.89,196.19 499.5,197.26 502.11,198.33 504.71,199.4 507.32,200.47 509.93,201.54 512.57,202.62 515.19,203.69 517.81,204.76 520.42,205.83 523.03,206.9 525.65,207.97 528.27,209.05 530.87,210.11 533.48,211.18 536.11,212.26 538.71,213.32 541.32,214.39 543.94,215.47 546.55,216.54 549.16,217.61 551.78,218.68 554.39,219.75 557.01,220.82 559.63,221.89 562.24,222.96 564.84,224.03 567.47,225.11 570.08,226.18 572.7,227.25 575.28,228.31 577.92,229.39 580.55,230.46 583.15,231.53 585.78,232.61 588.41,233.68 591.0,234.75 593.56,235.79 596.28,236.91 598.83,237.95 601.52,239.06 604.08,240.1 606.7,241.18 609.35,242.26 611.84,243.28 614.45,244.35 617.1,245.44 619.77,246.53 622.31,247.57 625.13,248.72 627.47,249.69 630.17,250.79 632.7,251.83 635.47,252.96 638.18,254.07 640.55,255.04 643.2,256.13 645.96,257.26 648.43,258.27 651.25,259.42 653.59,260.38 656.39,261.53 659.0,262.6 661.43,263.6 664.25,264.75 666.86,265.82 669.4,266.86 671.88,267.88 674.77,269.06 677.42,270.15 679.99,271.2 682.3,272.14 685.08,273.28 687.56,274.3 690.35,275.44 692.82,276.45 695.77,277.66 697.98,278.57 700.81,279.73 703.45,280.81 706.0,281.85 708.58,282.91 711.38,284.06 714.0,285.13"/>
<line x1="364" y1="75" x2="406" y2="75" stroke="#555555" stroke-width="2" stroke-dasharray="4 4"/>
<text x="419" y="81" font-family="sans-serif" font-size="18">nominal ACF β=0.4</text>
<polyline fill="none" stroke="#1f77b4" stroke-width="2" points="140.0,50.0 176.85,98.68 198.4,139.28 213.7,168.62 225.56,188.04 235.25,198.93 243.45,206.22 250.54,211.74 256.81,214.48 262.41,217.7 267.47,221.37 272.1,224.72 276.35,224.39 280.29,225.51 283.96,228.28 287.39,229.1 290.61,229.71 293.65,232.48 296.53,233.72 299.25,235.34 301.85,236.82 304.32,237.82 306.68,238.79 308.95,239.43 311.12,240.95 313.2,241.51 316.17,241.3 319.01,242.84 321.68,243.34 324.24,245.45 326.67,245.8 329.75,249.94 332.67,251.88 334.76,248.9 337.4,253.77 340.56,256.64 342.95,256.8 345.23,256.4 347.96,260.12 350.56,261.7 353.03,258.83 355.85,259.98 358.53,261.66 361.08,259.32 363.52,265.1 366.22,270.04 368.8,266.59 371.26,265.85 373.93,270.23 376.48,268.14 379.2,275.09 381.8,271.57 384.27,274.11 386.89,276.77 389.63,276.96 392.24,279.43 394.72,282.52 397.51,285.34 400.17,286.07 402.69,282.92 405.29,284.84 407.93,285.67 410.62,287.56 413.17,289.84 415.76,289.87 418.37,288.47 420.99,293.01 423.61,297.54 426.24,295.81 428.85,297.33 431.46,296.8 434.15,300.14 436.82,302.08 439.35,306.32 441.95,308.89 444.61,301.5 447.22,305.75 449.86,307.07 452.46,313.17 455.07,310.54 457.7,311.44 460.27,312.84 462.9,317.63 465.53,321.51 468.14,318.38 470.74,322.45 473.31,325.37 475.96,325.08 478.58,324.13 481.2,326.28 483.82,320.95 486.4,334.63 489.01,332.07 491.64,332.37 494.28,338.3 496.89,337.22 499.5,345.43 502.11,346.55 504.71,340.89 507.32,341.2 509.93,341.86 512.57,336.4 515.19,342.02 517.81,339.01 520.42,347.02 523.03,357.75 525.65,350.51 528.27,350.23 530.87,357.49 533.48,356.34 536.11,360.06 538.71,364.06 541.32,364.95 543.94,365.85 546.55,370.76 549.16,375.57 551.78,375.51 554.39,376.56 557.01,383.23 559.63,378.8 562.24,395.81 564.84,390.23 567.47,373.03 570.08,386.28 572.7,384.6 575.28,385.48 577.92,400.16 580.55,406.08 583.15,399.76 585.78,402.71 588.41,398.92 591.0,398.68 593.56,413.11 596.28,417.4 598.83,416.88 601.52,430.46 604.08,429.24 606.7,421.41 609.35,412.21 611.84,408.69 614.45,417.22 617.1,423.79 619.77,416.64 622.31,423.55 625.13,431.29 627.47,428.96 630.17,436.12 632.7,440.66 635.47,449.1 638.18,433.9 640.55,429.44 643.2,441.47 645.96,435.1 648.43,432.35 651.25,439.49 653.59,438.74 656.39,449.43 659.0,442.81 661.43,441.42 664.25,436.37 666.86,446.25 669.4,442.58 671.88,448.53 674.77,453.56 677.42,450.44 679.99,444.02 682.3,445.59 685.08,455.3 687.56,441.55 690.35,451.14 692.82,453.49 695.77,453.07 697.98,448.99 700.81,458.77 703.45,456.53 706.0,452.29 708.58,449.53 711.38,460.0 714.0,454.3"/>
<line x1="629.62" y1="50" x2="629.62" y2="460" stroke="#d62728" stroke-width="2" stroke-dasharray="7 5"/>
<line x1="364" y1="103" x2="406" y2="103" stroke="#d62728" stroke-width="2" stroke-dasharray="7 5"/>
<text x="419" y="109" font-family="sans-serif" font-size="18">finite-sample limit n/10</text>
<text x="380.0" y="530" text-anchor="middle" font-family="sans-serif" font-size="22">lag</text>
<text x="52" y="288.0" transform="rotate(-90 52 288.0)" text-anchor="middle" font-family="sans-serif" font-size="22">positive average one-hot autocorrelation</text>
</svg>
