<svg xmlns="http://www.w3.org/2000/svg" width="760" height="580" viewBox="0 0 760 580">
<rect width="100%" height="100%" fill="white"/>
<line x1="116" y1="480" x2="714" y2="480" stroke="black"/>
<line x1="116" y1="44" x2="116" y2="480" stroke="black"/>
<line x1="116.0" y1="480" x2="116.0" y2="485" stroke="black"/>
<text x="116.0" y="510" text-anchor="middle" font-family="sans-serif" font-size="15">10⁰</text>
<line x1="243.49383026337452" y1="480" x2="243.49383026337452" y2="485" stroke="black"/>
<text x="243.49383026337452" y="510" text-anchor="middle" font-family="sans-serif" font-size="15">10¹</text>
<line x1="370.98766052674904" y1="480" x2="370.98766052674904" y2="485" stroke="black"/>
<text x="370.98766052674904" y="510" text-anchor="middle" font-family="sans-serif" font-size="15">10²</text>
<line x1="498.48149079012353" y1="480" x2="498.48149079012353" y2="485" stroke="black"/>
<text x="498.48149079012353" y="510" text-anchor="middle" font-family="sans-serif" font-size="15">10³</text>
<line x1="625.9753210534981" y1="480" x2="625.9753210534981" y2="485" stroke="black"/>
<text x="625.9753210534981" y="510" text-anchor="middle" font-family="sans-serif" font-size="15">10⁴</text>
<line x1="111" y1="403.1938275944382" x2="116" y2="403.1938275944382" stroke="black"/>
<text x="105" y="408.1938275944382" text-anchor="end" font-family="sans-serif" font-size="15">10⁻³</text>
<line x1="111" y1="277.7508497191709" x2="116" y2="277.7508497191709" stroke="black"/>
<text x="105" y="282.7508497191709" text-anchor="end" font-family="sans-serif" font-size="15">10⁻²</text>
<line x1="111" y1="152.30787184390363" x2="116" y2="152.30787184390363" stroke="black"/>
<text x="105" y="157.30787184390363" text-anchor="end" font-family="sans-serif" font-size="15">10⁻¹</text>
<polyline fill="none" stroke="#555555" stroke-width="2" stroke-dasharray="4 4" points="116.0,69.57 154.38,84.67 176.83,93.51 192.76,99.78 205.11,104.64 215.21,108.61 223.74,111.97 231.14,114.88 237.66,117.45 243.49,119.74 248.77,121.82 253.59,123.72 258.02,125.46 262.12,127.08 265.94,128.58 269.52,129.99 272.87,131.31 276.04,132.55 279.03,133.73 281.87,134.85 284.57,135.91 287.15,136.93 289.61,137.89 291.97,138.82 294.23,139.71 296.4,140.57 299.5,141.78 302.45,142.95 305.23,144.04 307.9,145.09 310.43,146.09 313.64,147.35 316.67,148.55 318.85,149.4 320.94,150.22 324.25,151.53 327.38,152.76 329.77,153.7 332.6,154.81 335.31,155.88 337.88,156.89 340.82,158.05 343.61,159.15 346.27,160.19 348.81,161.19 351.63,162.3 354.31,163.36 356.87,164.36 359.66,165.46 362.31,166.51 365.15,167.62 367.85,168.69 370.43,169.7 373.15,170.77 376.01,171.9 378.72,172.97 381.31,173.98 384.22,175.13 386.98,176.22 389.61,177.25 392.31,178.31 395.07,179.4 397.86,180.5 400.53,181.55 403.22,182.61 405.94,183.68 408.66,184.75 411.4,185.83 414.13,186.9 416.86,187.97 419.57,189.04 422.38,190.15 425.15,191.24 427.79,192.28 430.5,193.34 433.27,194.43 435.99,195.5 438.74,196.59 441.44,197.65 444.09,198.69 446.83,199.77 449.58,200.85 452.32,201.93 455.06,203.01 457.78,204.08 460.48,205.14 463.17,206.2 465.92,207.28 468.65,208.36 471.33,209.41 474.07,210.49 476.8,211.56 479.51,212.63 482.25,213.71 484.97,214.78 487.69,215.85 490.41,216.92 493.13,217.99 495.87,219.07 498.59,220.14 501.31,221.21 504.03,222.28 506.74,223.35 509.46,224.42 512.19,225.49 514.93,226.57 517.66,227.65 520.37,228.71 523.1,229.79 525.82,230.86 528.54,231.93 531.27,233.0 533.99,234.07 536.7,235.14 539.44,236.22 542.17,237.29 544.88,238.36 547.6,239.43 550.33,240.5 553.05,241.57 555.77,242.65 558.5,243.72 561.22,244.79 563.94,245.86 566.67,246.93 569.39,248.0 572.11,249.08 574.84,250.15 577.57,251.22 580.29,252.29 583.0,253.36 585.73,254.43 588.46,255.51 591.17,256.58 593.94,257.67 596.63,258.73 599.11,259.7 602.11,260.88 604.79,261.94 607.48,263.0 610.15,264.05 612.59,265.01 616.12,266.4 618.01,267.14 620.85,268.26 624.3,269.61 626.94,270.66 628.21,271.16 635.38,273.98 642.51,276.78 651.0,280.12 655.03,281.71 657.64,282.74 659.58,283.5 662.01,284.46 664.53,285.45 667.75,286.72 669.67,287.47 672.79,288.7 676.34,290.1 678.65,291.01 681.6,292.17 684.05,293.13 689.42,295.24 693.08,296.68 694.26,297.15 697.77,298.53 699.99,299.41 703.57,300.81 705.0,301.38 707.89,302.51 710.62,303.59 714.0,304.92"/>
<line x1="434" y1="64" x2="468" y2="64" stroke="#555555" stroke-width="2" stroke-dasharray="4 4"/>
<text x="478" y="69" font-family="sans-serif" font-size="14">nominal ACF β=0.4</text>
<polyline fill="none" stroke="#1f77b4" stroke-width="2" points="116.0,44.0 154.38,57.43 176.83,68.07 192.76,76.63 205.11,83.62 215.21,89.57 223.74,94.75 231.14,99.23 237.66,103.14 243.49,106.74 248.77,110.07 253.59,113.13 258.02,115.9 262.12,118.41 265.94,120.75 269.52,122.93 272.87,124.93 276.04,126.87 279.03,128.8 281.87,130.67 284.57,132.39 287.15,133.97 289.61,135.6 291.97,137.02 294.23,138.54 296.4,140.1 299.5,142.18 302.45,144.33 305.23,146.13 307.9,147.8 310.43,149.56 313.64,151.1 316.67,152.84 318.85,154.43 321.61,156.17 324.89,157.95 327.38,159.31 329.77,160.85 332.6,162.7 335.31,164.35 337.88,165.66 340.82,167.83 343.61,169.26 346.27,171.18 348.81,173.65 351.63,175.61 354.31,177.44 356.87,178.82 359.66,181.06 362.31,181.51 365.15,183.37 367.85,185.65 370.43,187.44 373.15,190.44 376.01,192.16 378.72,194.2 381.31,196.72 384.22,197.55 386.98,200.05 389.61,203.05 392.31,205.58 395.07,208.28 397.86,210.78 400.53,212.37 403.22,215.69 405.94,215.63 408.66,215.51 411.4,218.46 414.13,221.48 416.86,224.2 419.57,224.86 422.38,231.13 425.15,232.61 427.79,232.55 430.5,231.79 433.27,231.9 435.99,233.66 438.74,235.99 441.44,238.3 444.17,239.14 446.9,244.64 449.58,250.64 452.32,251.41 455.06,250.86 457.78,248.42 460.48,250.29 463.17,253.79 465.92,253.02 468.65,255.64 471.38,257.02 474.11,259.27 476.84,259.91 479.55,260.2 482.25,254.67 485.0,255.19 487.72,265.05 490.45,269.96 493.16,272.96 495.87,265.35 498.61,266.23 501.34,270.77 504.05,279.71 506.79,274.9 509.51,279.2 512.23,275.74 514.95,295.09 517.68,284.01 520.41,285.94 523.12,296.24 525.83,294.3 528.57,297.63 531.3,292.12 534.02,299.45 536.73,309.55 539.45,311.43 542.18,308.63 544.91,316.22 547.63,325.74 550.35,302.05 553.07,298.38 555.8,301.25 558.53,332.87 561.25,327.59 563.97,322.83 566.69,319.45 569.42,341.38 572.19,376.73 574.88,400.96 577.62,387.95 580.31,372.43 583.14,362.05 585.81,373.45 588.27,441.04 591.11,435.38 594.46,415.94 596.99,378.61 598.36,397.34 601.92,434.55 604.96,415.43 607.27,412.37 610.16,417.58 612.99,429.46 616.16,421.38 617.92,399.69 621.15,408.06 624.2,436.37 627.34,459.38 628.47,417.32 631.53,480.0 635.18,472.58 638.13,412.87 642.7,423.57 645.42,458.54 648.71,457.9 651.24,390.36 653.42,463.5 656.82,434.15 659.52,421.0 662.11,400.97 664.57,392.84 667.68,405.97 669.73,396.11 672.81,397.16 676.1,422.92 678.8,448.22 681.27,424.64 683.85,438.53 686.17,436.75 689.47,425.24 692.41,454.02 694.59,398.14 697.55,418.31 700.23,413.05 703.09,416.83 705.07,383.78 707.97,404.44 711.35,397.57 713.9,387.68"/>
<line x1="625.97" y1="44" x2="625.97" y2="480" stroke="#d62728" stroke-width="2" stroke-dasharray="7 5"/>
<line x1="434" y1="86" x2="468" y2="86" stroke="#d62728" stroke-width="2" stroke-dasharray="7 5"/>
<text x="478" y="91" font-family="sans-serif" font-size="14">finite-sample limit n/10</text>
<text x="380.0" y="536" text-anchor="middle" font-family="sans-serif" font-size="18">lag</text>
<text x="46" y="288.0" transform="rotate(-90 46 288.0)" text-anchor="middle" font-family="sans-serif" font-size="18">positive latent autocorrelation</text>
</svg>
