<svg xmlns="http://www.w3.org/2000/svg" width="760" height="580" viewBox="0 0 760 580">
<rect width="100%" height="100%" fill="white"/>
<line x1="140" y1="460" x2="714" y2="460" stroke="black"/>
<line x1="140" y1="50" x2="140" y2="460" stroke="black"/>
<line x1="140.0" y1="460" x2="140.0" y2="465" stroke="black"/>
<text x="140.0" y="498" text-anchor="middle" font-family="sans-serif" font-size="19">10⁰</text>
<line x1="262.3770210220351" y1="460" x2="262.3770210220351" y2="465" stroke="black"/>
<text x="262.3770210220351" y="498" text-anchor="middle" font-family="sans-serif" font-size="19">10¹</text>
<line x1="384.75404204407016" y1="460" x2="384.75404204407016" y2="465" stroke="black"/>
<text x="384.75404204407016" y="498" text-anchor="middle" font-family="sans-serif" font-size="19">10²</text>
<line x1="507.1310630661052" y1="460" x2="507.1310630661052" y2="465" stroke="black"/>
<text x="507.1310630661052" y="498" text-anchor="middle" font-family="sans-serif" font-size="19">10³</text>
<line x1="629.5080840881403" y1="460" x2="629.5080840881403" y2="465" stroke="black"/>
<text x="629.5080840881403" y="498" text-anchor="middle" font-family="sans-serif" font-size="19">10⁴</text>
<line x1="135" y1="427.42047188981746" x2="140" y2="427.42047188981746" stroke="black"/>
<text x="126" y="433.42047188981746" text-anchor="end" font-family="sans-serif" font-size="19">10⁻⁴</text>
<line x1="135" y1="324.28860999828" x2="140" y2="324.28860999828" stroke="black"/>
<text x="126" y="330.28860999828" text-anchor="end" font-family="sans-serif" font-size="19">10⁻³</text>
<line x1="135" y1="221.1567481067425" x2="140" y2="221.1567481067425" stroke="black"/>
<text x="126" y="227.1567481067425" text-anchor="end" font-family="sans-serif" font-size="19">10⁻²</text>
<line x1="135" y1="118.02488621520502" x2="140" y2="118.02488621520502" stroke="black"/>
<text x="126" y="124.02488621520502" text-anchor="end" font-family="sans-serif" font-size="19">10⁻¹</text>
<polyline fill="none" stroke="#555555" stroke-width="2" stroke-dasharray="4 4" points="140.0,50.0 176.84,62.42 198.39,69.68 213.68,74.84 225.54,78.83 235.23,82.1 243.42,84.86 250.52,87.25 256.78,89.37 262.38,91.25 267.44,92.96 272.07,94.52 276.32,95.95 280.26,97.28 283.93,98.52 287.36,99.67 290.58,100.76 293.62,101.78 296.49,102.75 299.22,103.67 301.81,104.55 304.28,105.38 306.64,106.18 308.91,106.94 311.08,107.67 313.16,108.37 316.13,109.37 318.96,110.33 321.64,111.23 324.2,112.09 326.62,112.91 329.71,113.95 332.62,114.93 334.71,115.64 336.71,116.31 339.89,117.38 342.9,118.4 345.19,119.17 347.91,120.08 350.51,120.96 352.97,121.79 355.8,122.74 358.48,123.65 361.03,124.51 363.47,125.33 366.17,126.24 368.75,127.11 371.2,127.94 373.88,128.84 376.42,129.7 379.15,130.62 381.74,131.49 384.21,132.32 386.83,133.21 389.57,134.13 392.18,135.01 394.66,135.84 397.45,136.79 400.11,137.68 402.63,138.53 405.22,139.41 407.87,140.3 410.55,141.2 413.11,142.06 415.69,142.93 418.3,143.81 420.92,144.7 423.54,145.58 426.17,146.47 428.78,147.35 431.39,148.23 434.08,149.13 436.74,150.03 439.28,150.89 441.88,151.76 444.54,152.66 447.15,153.54 449.79,154.43 452.38,155.3 454.93,156.16 457.56,157.05 460.19,157.94 462.82,158.82 465.45,159.71 468.06,160.59 470.66,161.46 473.23,162.33 475.88,163.22 478.49,164.11 481.07,164.97 483.7,165.86 486.32,166.74 488.92,167.62 491.55,168.51 494.16,169.39 496.77,170.27 499.39,171.15 502.0,172.03 504.62,172.91 507.23,173.79 509.85,174.67 512.46,175.55 515.06,176.43 517.67,177.31 520.29,178.19 522.92,179.08 525.54,179.96 528.14,180.84 530.76,181.72 533.37,182.6 535.98,183.48 538.6,184.37 541.21,185.25 543.82,186.13 546.44,187.01 549.07,187.89 551.67,188.77 554.28,189.65 556.9,190.53 559.51,191.41 562.12,192.3 564.74,193.18 567.35,194.06 569.96,194.94 572.58,195.82 575.19,196.7 577.8,197.58 580.42,198.46 583.04,199.35 585.65,200.23 588.26,201.11 590.87,201.99 593.49,202.87 596.1,203.75 598.76,204.65 601.34,205.52 603.72,206.32 606.6,207.29 609.17,208.15 611.75,209.03 614.31,209.89 616.66,210.68 620.05,211.82 621.86,212.43 624.59,213.35 627.9,214.47 630.43,215.32 631.65,215.73 638.54,218.06 645.38,220.36 653.52,223.11 657.4,224.41 659.9,225.26 661.77,225.89 664.1,226.67 666.52,227.49 669.61,228.53 671.45,229.15 674.44,230.16 677.85,231.31 680.07,232.06 682.9,233.01 685.25,233.8 690.41,235.54 693.92,236.72 695.05,237.11 698.42,238.24 700.55,238.96 703.99,240.12 705.36,240.58 708.13,241.52 710.76,242.4 714.0,243.49"/>
<line x1="364" y1="75" x2="406" y2="75" stroke="#555555" stroke-width="2" stroke-dasharray="4 4"/>
<text x="419" y="81" font-family="sans-serif" font-size="18">nominal ACF β=0.4</text>
<polyline fill="none" stroke="#1f77b4" stroke-width="2" points="140.0,50.0 176.84,66.9 198.39,76.94 213.68,80.65 225.54,83.95 235.23,89.25 243.42,95.02 250.52,99.36 256.78,102.18 262.38,103.62 267.44,104.99 272.07,106.38 276.32,107.49 280.26,108.39 283.93,109.53 287.36,110.91 290.58,111.78 293.62,112.82 296.49,114.17 299.22,115.38 301.81,116.49 304.28,117.33 306.64,118.47 308.91,119.38 311.08,120.12 313.16,121.12 316.13,122.34 318.96,123.66 321.64,124.84 324.2,125.95 326.62,126.97 329.71,128.1 332.62,129.39 334.71,130.29 336.71,131.53 339.89,132.68 342.9,134.0 345.19,135.15 347.91,136.22 350.51,137.68 352.97,138.38 355.8,139.85 358.48,141.16 361.03,142.51 363.47,144.18 366.17,145.19 368.75,146.46 371.2,147.41 373.88,148.99 376.42,149.87 379.15,151.37 381.74,152.99 384.21,154.06 386.83,155.76 389.57,157.03 392.18,158.36 394.66,160.12 397.45,161.5 400.11,163.05 402.63,164.96 405.22,166.84 407.87,168.91 410.55,169.71 413.11,171.56 415.69,173.24 418.3,173.47 420.92,174.78 423.54,176.11 426.17,178.81 428.78,180.56 431.39,181.72 434.08,184.08 436.74,185.47 439.28,186.16 441.88,185.03 444.54,185.68 447.15,188.29 449.79,188.87 452.38,190.01 454.93,191.28 457.56,194.64 460.19,196.93 462.82,197.07 465.45,197.13 468.06,197.35 470.66,199.22 473.23,200.9 475.88,202.15 478.49,204.42 481.07,204.22 483.7,204.14 486.32,204.14 488.92,205.01 491.55,203.62 494.16,204.8 496.77,208.1 499.39,210.2 502.0,212.32 504.62,212.14 507.23,213.43 509.85,215.65 512.46,218.55 515.06,218.65 517.67,220.34 520.29,219.78 522.92,227.97 525.54,224.14 528.14,224.02 530.76,229.24 533.37,231.0 535.98,234.71 538.6,233.09 541.21,233.63 543.82,236.16 546.44,238.54 549.07,239.01 551.67,241.41 554.28,247.0 556.9,240.55 559.51,238.65 562.12,241.36 564.74,251.84 567.35,249.92 569.96,251.16 572.58,254.71 575.19,264.49 577.8,279.76 580.42,288.72 583.04,288.45 585.65,283.82 588.26,291.28 590.87,297.36 593.49,333.19 596.1,327.03 598.76,325.14 601.34,292.74 603.72,336.89 606.6,331.0 609.17,318.21 611.75,339.97 614.31,345.82 616.66,365.5 620.05,358.78 621.86,362.37 624.59,368.88 627.9,382.69 630.43,419.41 631.65,403.84 638.54,413.5 645.38,373.52 653.52,334.16 657.4,390.38 659.9,373.77 661.77,381.81 664.1,351.78 666.52,342.35 669.61,349.8 671.45,341.21 674.44,351.82 677.85,376.32 680.07,415.99 682.9,415.3 685.25,385.8 690.41,381.86 693.92,460.0 695.05,365.82 698.42,405.96 700.55,350.95 703.99,387.15 705.36,344.88 708.13,364.89 710.76,363.1 714.0,362.66"/>
<line x1="629.5" y1="50" x2="629.5" y2="460" stroke="#d62728" stroke-width="2" stroke-dasharray="7 5"/>
<line x1="364" y1="103" x2="406" y2="103" stroke="#d62728" stroke-width="2" stroke-dasharray="7 5"/>
<text x="419" y="109" font-family="sans-serif" font-size="18">finite-sample limit n/10</text>
<text x="380.0" y="530" text-anchor="middle" font-family="sans-serif" font-size="22">lag</text>
<text x="52" y="288.0" transform="rotate(-90 52 288.0)" text-anchor="middle" font-family="sans-serif" font-size="22">positive average one-hot autocorrelation</text>
</svg>
